<svg width="49" height="49" viewBox="0 0 49 49" fill="none" xmlns="http://www.w3.org/2000/svg">
<rect x="0.570312" y="0.5" width="48" height="48" rx="4" fill="#ED6BA6"/>
<mask id="mask0_1333_608" style="mask-type:alpha" maskUnits="userSpaceOnUse" x="12" y="12" width="25" height="25">
<rect x="12.5" y="12.0723" width="24" height="24" fill="#D9D9D9"/>
</mask>
<g mask="url(#mask0_1333_608)">
<path d="M12.5 30.0723V28.4973C12.5 27.7806 12.8667 27.1973 13.6 26.7473C14.3333 26.2973 15.3 26.0723 16.5 26.0723C16.7167 26.0723 16.925 26.0763 17.125 26.0843C17.325 26.0929 17.5167 26.1139 17.7 26.1473C17.4667 26.4973 17.2917 26.8639 17.175 27.2473C17.0583 27.6306 17 28.0306 17 28.4473V30.0723H12.5ZM18.5 30.0723V28.4473C18.5 27.9139 18.646 27.4263 18.938 26.9843C19.2293 26.5429 19.6417 26.1556 20.175 25.8223C20.7083 25.4889 21.346 25.2389 22.088 25.0723C22.8293 24.9056 23.6333 24.8223 24.5 24.8223C25.3833 24.8223 26.196 24.9056 26.938 25.0723C27.6793 25.2389 28.3167 25.4889 28.85 25.8223C29.3833 26.1556 29.7917 26.5429 30.075 26.9843C30.3583 27.4263 30.5 27.9139 30.5 28.4473V30.0723H18.5ZM32 30.0723V28.4473C32 28.0139 31.9457 27.6056 31.837 27.2223C31.729 26.8389 31.5667 26.4806 31.35 26.1473C31.5333 26.1139 31.721 26.0929 31.913 26.0843C32.1043 26.0763 32.3 26.0723 32.5 26.0723C33.7 26.0723 34.6667 26.2929 35.4 26.7343C36.1333 27.1763 36.5 27.7639 36.5 28.4973V30.0723H32ZM16.5 25.0723C15.95 25.0723 15.4793 24.8763 15.088 24.4843C14.696 24.0929 14.5 23.6223 14.5 23.0723C14.5 22.5056 14.696 22.0306 15.088 21.6473C15.4793 21.2639 15.95 21.0723 16.5 21.0723C17.0667 21.0723 17.5417 21.2639 17.925 21.6473C18.3083 22.0306 18.5 22.5056 18.5 23.0723C18.5 23.6223 18.3083 24.0929 17.925 24.4843C17.5417 24.8763 17.0667 25.0723 16.5 25.0723ZM32.5 25.0723C31.95 25.0723 31.479 24.8763 31.087 24.4843C30.6957 24.0929 30.5 23.6223 30.5 23.0723C30.5 22.5056 30.6957 22.0306 31.087 21.6473C31.479 21.2639 31.95 21.0723 32.5 21.0723C33.0667 21.0723 33.5417 21.2639 33.925 21.6473C34.3083 22.0306 34.5 22.5056 34.5 23.0723C34.5 23.6223 34.3083 24.0929 33.925 24.4843C33.5417 24.8763 33.0667 25.0723 32.5 25.0723ZM24.5 24.0723C23.6667 24.0723 22.9583 23.7806 22.375 23.1973C21.7917 22.6139 21.5 21.9056 21.5 21.0723C21.5 20.2223 21.7917 19.5096 22.375 18.9343C22.9583 18.3596 23.6667 18.0723 24.5 18.0723C25.35 18.0723 26.0623 18.3596 26.637 18.9343C27.2123 19.5096 27.5 20.2223 27.5 21.0723C27.5 21.9056 27.2123 22.6139 26.637 23.1973C26.0623 23.7806 25.35 24.0723 24.5 24.0723Z" fill="white"/>
</g>
</svg>
