<svg width="1728" height="753" viewBox="0 0 1728 753" fill="none" xmlns="http://www.w3.org/2000/svg">
<g clip-path="url(#clip0_1337_939)">
<path d="M1231.2 60.7188L1218 43.9991L1220.1 42.3496L1231.2 56.3702L1243.35 41L1255.5 56.3702L1267.65 41L1279.8 56.3702L1290.9 42.3496L1293 43.9991L1279.8 60.7188L1267.65 45.3486L1255.5 60.7188L1243.35 45.3486L1231.2 60.7188Z" fill="#FFBE4E" stroke="#FFBE4E" stroke-width="0.749882"/>
<path d="M1670 672C1662.82 672 1657 666.176 1657 659C1657 651.824 1662.82 646 1670 646C1677.18 646 1683 651.824 1683 659C1683 666.176 1677.18 672 1670 672ZM1670 650.316C1665.22 650.316 1661.32 654.216 1661.32 659C1661.32 663.784 1665.22 667.684 1670 667.684C1674.78 667.684 1678.68 663.784 1678.68 659C1678.68 654.216 1674.78 650.316 1670 650.316Z" fill="#9143FD" stroke="#9143FD" stroke-width="0.26"/>
</g>
<defs>
<clipPath id="clip0_1337_939">
<rect width="1728" height="753" fill="white"/>
</clipPath>
</defs>
</svg>
