<svg width="1728" height="753" viewBox="0 0 1728 753" fill="none" xmlns="http://www.w3.org/2000/svg">
<path fill-rule="evenodd" clip-rule="evenodd" d="M189.822 216.803C189.715 217.532 189.6 218.317 189.47 219.101C189.337 219.829 189.007 220.49 188.676 221.151C187.618 223.068 186.693 223.135 185.503 221.349C183.585 218.44 182.924 215.134 182.527 211.762C182.511 211.564 182.49 211.365 182.469 211.167C182.407 210.572 182.345 209.977 182.395 209.382C182.461 208.522 182.593 207.596 182.99 206.803C183.651 205.415 185.238 204.753 186.759 205.084C188.28 205.348 189.337 206.472 189.602 208.125C189.743 209.58 189.85 211.035 189.972 212.679C190.021 213.351 190.073 214.055 190.131 214.803C190.031 215.372 189.93 216.058 189.822 216.803ZM213.571 229.897C213.715 229.779 213.858 229.662 214 229.548C213.967 229.482 213.95 229.399 213.934 229.317C213.917 229.234 213.901 229.151 213.868 229.085C213.74 229.012 213.611 228.934 213.482 228.854C213.144 228.648 212.796 228.435 212.413 228.292C207.785 226.176 202.826 226.308 197.933 226.837C197.757 226.837 197.58 226.896 197.404 226.955C197.316 226.984 197.228 227.013 197.14 227.035C195.553 227.631 194.561 229.019 194.627 230.54C194.693 232.061 195.751 233.449 197.338 233.846C197.933 234.044 198.594 234.044 199.189 234.044C200.776 233.978 202.363 233.846 203.95 233.714C206.793 233.449 209.438 232.59 211.884 231.135C212.507 230.772 213.048 230.327 213.571 229.897ZM183.188 240.854C182.924 242.772 182.792 244.623 182.659 246.541C182.527 248.524 182.593 250.508 183.188 252.558C183.585 253.946 184.18 255.202 185.37 256.128C186.428 256.921 186.957 256.855 187.684 255.731C188.61 254.277 189.271 252.756 189.47 251.037C189.73 248.777 189.934 246.488 190.137 244.209C190.243 243.02 190.348 241.834 190.462 240.656C190.462 240.392 190.461 240.061 190.395 239.73C190.197 238.144 189.007 236.953 187.552 236.689C186.098 236.358 184.577 237.086 183.85 238.474C183.519 239.202 183.321 240.061 183.188 240.854ZM183.112 233.33C183.692 233.123 184.298 232.906 184.577 232.127L183.585 231.73C178.229 230.804 172.874 230.804 167.452 231.201C166.659 231.267 165.865 231.532 165.204 231.928C163.485 233.052 163.617 235.433 165.535 236.292C166.262 236.623 167.188 236.689 167.981 236.689C169.282 236.627 170.526 236.449 171.82 236.263C171.907 236.251 171.993 236.239 172.08 236.226C175.717 235.697 179.354 234.838 182.792 233.449C182.896 233.407 183.003 233.369 183.112 233.33Z" fill="#004DB3"/>
</svg>
