<svg width="1736" height="912" viewBox="0 0 1736 912" fill="none" xmlns="http://www.w3.org/2000/svg">
<path d="M14.2 316.171L1 300.924L3.1 299.42L14.2 312.205L26.35 298.189L38.5 312.205L50.65 298.189L62.8 312.205L73.9 299.42L76 300.924L62.8 316.171L50.65 302.155L38.5 316.171L26.35 302.155L14.2 316.171Z" fill="#FFBE4E" stroke="#FFBE4E" stroke-width="0.749882"/>
<path d="M1472 128.577C1464.82 128.577 1459 123.266 1459 116.722C1459 110.179 1464.82 104.868 1472 104.868C1479.18 104.868 1485 110.179 1485 116.722C1485 123.266 1479.18 128.577 1472 128.577ZM1472 108.803C1467.22 108.803 1463.32 112.36 1463.32 116.722C1463.32 121.085 1467.22 124.641 1472 124.641C1476.78 124.641 1480.68 121.085 1480.68 116.722C1480.68 112.36 1476.78 108.803 1472 108.803Z" fill="#004DB3" stroke="#9143FD" stroke-width="0.26"/>
<path d="M1561 910.983C1558.79 910.983 1557 909.349 1557 907.335C1557 905.322 1558.79 903.688 1561 903.688C1563.21 903.688 1565 905.322 1565 907.335C1565 909.349 1563.21 910.983 1561 910.983Z" fill="#FFBE4E" stroke="#FFBE4E" stroke-width="0.08"/>
</svg>
