<svg width="428" height="666" viewBox="0 0 428 666" fill="none" xmlns="http://www.w3.org/2000/svg">
<g clip-path="url(#clip0_1322_581)">
<path d="M434.348 209.682L430.368 206.525L426.344 209.682L422.365 206.525L418.385 209.682L414.361 206.525L410.382 209.682L406 206.246L406.76 205.855L410.382 208.704L414.361 205.548L418.385 208.704L422.365 205.548L426.344 208.704L430.368 205.548L434.348 208.704L438.327 205.548L442.351 208.704L446.331 205.548L450.712 209.011L449.952 209.374L446.331 206.525L442.351 209.682L438.327 206.525L434.348 209.682Z" fill="#7FE8BF" stroke="#7FE8BF" stroke-width="0.447091"/>
<path d="M298 641C295.792 641 294 639.208 294 637C294 634.792 295.792 633 298 633C300.208 633 302 634.792 302 637C302 639.208 300.208 641 298 641ZM298 634.328C296.528 634.328 295.328 635.528 295.328 637C295.328 638.472 296.528 639.672 298 639.672C299.472 639.672 300.672 638.472 300.672 637C300.672 635.528 299.472 634.328 298 634.328Z" fill="#C8A1FD" stroke="#C8A1FD" stroke-width="0.0526028"/>
<path d="M434.5 414.301C422.08 414.301 412 403.705 412 390.65C412 377.595 422.08 367 434.5 367C446.92 367 457 377.595 457 390.65C457 403.705 446.92 414.301 434.5 414.301ZM434.5 374.852C426.22 374.852 419.47 381.947 419.47 390.65C419.47 399.354 426.22 406.449 434.5 406.449C442.78 406.449 449.53 399.354 449.53 390.65C449.53 381.947 442.78 374.852 434.5 374.852Z" fill="#EFE8FF" stroke="#EFE8FF" stroke-width="0.449315"/>
</g>
<path fill-rule="evenodd" clip-rule="evenodd" d="M349.288 495.703C349.457 492.127 351.746 490.271 354.925 491.267C356.238 491.674 357.086 492.58 357.468 493.983C357.892 495.612 357.764 497.241 357.044 498.735C356.281 500.274 355.094 501.224 353.399 501.179C351.746 501.134 350.602 500.093 350.009 498.509C349.732 497.852 349.589 497.147 349.45 496.464C349.398 496.206 349.346 495.951 349.288 495.703ZM317.29 584.23C317.29 584.139 317.29 583.868 317.332 583.641C317.586 582.872 317.671 582.057 317.671 581.197C317.671 580.111 318.561 579.296 319.621 579.251C320.087 579.251 320.595 579.342 320.977 579.523C322.333 580.202 323.605 581.061 324.579 582.283C326.571 584.682 325.681 588.62 322.884 589.751C321.401 590.385 319.833 589.932 318.731 588.62C317.925 587.624 317.29 585.814 317.29 584.23ZM334.539 607.765C333.861 608.489 333.607 609.394 333.607 609.982C333.607 612.426 334.666 614.463 336.192 615.413C338.099 616.59 340.261 615.956 341.32 613.875C342.846 610.887 341.066 606.769 337.972 606.045C336.785 605.773 335.768 606.045 335.005 607.176C334.878 607.402 334.709 607.583 334.539 607.765ZM395.95 574.906C395.908 575.117 395.875 575.334 395.842 575.55C395.776 575.983 395.71 576.415 395.569 576.807C394.636 579.477 391.712 580.156 389.805 578.12C388.83 577.124 388.449 575.812 388.279 574.408C388.237 574.001 388.152 573.548 388.025 573.141C387.432 571.512 388.025 570.109 389.593 569.565C391.543 568.841 394.128 569.882 395.145 571.783C395.654 572.734 395.908 573.775 395.95 574.906ZM310.05 517.376C310.032 517.479 310.015 517.573 310 517.653C310.042 519.554 310.339 520.912 311.229 521.998C312.161 523.175 313.391 523.718 314.832 523.446C316.272 523.175 317.205 522.179 317.671 520.686C318.519 518.015 317.163 514.802 314.492 514.168C314.408 514.138 314.323 514.113 314.238 514.088C314.069 514.038 313.899 513.987 313.73 513.897C312.543 513.354 311.06 513.897 310.466 515.526C310.257 516.196 310.134 516.896 310.05 517.376ZM382.642 595.273C382.642 597.128 381.752 598.577 380.311 599.075C378.997 599.572 377.641 599.12 376.667 597.898C375.565 596.449 375.098 594.775 375.141 592.965C375.183 591.652 375.861 590.566 376.582 589.57C377.048 588.937 377.769 588.755 378.531 588.891C378.955 588.982 379.379 589.163 379.718 589.434C381.244 590.521 382.642 593.282 382.642 595.273ZM310.339 549.923V550.376C310.381 552.412 310.975 554.223 312.67 555.399C313.814 556.214 315.043 556.395 316.315 555.716C317.544 555.037 318.095 553.861 318.137 552.458C318.222 550.059 317.078 548.294 315.213 547.026C315.043 546.891 314.874 546.8 314.662 546.755C312.501 546.031 310.466 547.524 310.339 549.923ZM366.834 596.902C366.9 597.06 366.953 597.226 367.006 597.39C367.089 597.648 367.17 597.903 367.3 598.124C367.894 599.165 368.36 600.206 368.402 601.473C368.445 602.831 367.978 603.872 366.834 604.505C365.69 605.139 364.588 604.913 363.613 604.099C362.469 603.193 361.918 601.881 361.663 600.387C361.55 599.723 361.475 599.059 361.4 598.396V598.395C361.362 598.063 361.324 597.732 361.282 597.4C361.197 596.766 361.324 596.087 361.791 595.725L361.861 595.671C362.603 595.098 363.385 594.495 364.206 594.232C365.774 593.734 367.215 595.182 366.834 596.902ZM366.071 566.533C364.927 567.891 364.249 569.475 364.291 571.014C364.249 572.598 364.46 573.594 364.885 574.408C365.562 575.63 366.749 576.218 367.978 576.038C369.504 575.812 370.902 574.454 371.199 572.824C371.538 570.969 371.115 569.294 370.055 567.8C369.928 567.62 369.812 567.451 369.696 567.281L369.695 567.28L369.694 567.279C369.578 567.109 369.461 566.94 369.335 566.76C368.487 565.447 367.088 565.357 366.071 566.533ZM338.226 589.887C340.981 589.389 343.228 592.829 342.549 595.68C341.998 597.988 339.837 599.12 337.802 598.169C335.768 597.219 334.454 594.323 335.09 592.014C335.387 590.747 336.404 589.525 338.226 589.887ZM395.399 550.466C394.679 551.688 394.297 553.046 394.34 554.494C394.34 555.581 394.552 556.576 395.06 557.481C395.823 558.839 397.052 559.518 398.366 559.292C399.637 559.111 400.697 558.024 400.909 556.44C401.29 553.951 400.443 551.779 398.917 549.968C397.857 548.701 396.247 549.018 395.399 550.466ZM329.964 566.115C330.047 566.374 330.129 566.629 330.258 566.85C330.894 568.027 331.191 569.249 330.979 570.606C330.809 571.783 330.216 572.688 329.114 573.051C327.97 573.458 326.995 573.051 326.19 572.146C325.469 571.285 325.088 570.244 324.834 569.158C324.706 568.615 324.537 568.072 324.283 567.574C323.732 566.307 324.028 565.13 325.088 564.361C325.3 564.225 325.501 564.067 325.702 563.908C325.904 563.75 326.105 563.591 326.317 563.455C327.122 562.912 327.97 562.822 328.817 563.32C329.623 563.818 329.962 564.587 329.792 565.628C329.858 565.786 329.911 565.952 329.964 566.115ZM377.387 500.636C378.531 500.002 378.955 498.916 378.997 497.739C379.04 495.748 377.769 493.485 376.116 492.127C374.42 490.724 372.301 491.629 372.047 493.937C371.92 494.978 371.962 496.11 372.132 497.151C372.344 498.463 372.979 499.595 374.039 500.364C375.098 501.134 376.243 501.315 377.387 500.636ZM348.568 574.997C348.568 574.649 348.563 574.303 348.558 573.956C348.549 573.262 348.539 572.568 348.568 571.874C348.652 570.471 349.881 569.565 351.195 570.018C351.746 570.199 352.255 570.516 352.678 570.923C353.653 571.874 354.331 573.005 354.84 574.318C355.221 575.313 355.306 576.354 354.925 577.395C354.501 578.708 353.653 579.523 352.382 579.749C351.068 579.975 350.051 579.432 349.288 578.3C348.652 577.305 348.44 576.174 348.568 574.997ZM388.999 521.681C390.568 521.002 391.585 519.283 391.585 517.382C391.585 515.526 390.653 513.987 389.254 513.489C387.771 512.901 386.075 513.489 385.058 514.847C383.914 516.386 383.956 519.237 385.143 520.731C386.075 521.908 387.601 522.27 388.999 521.681ZM347.847 533.766C347.847 534.535 347.677 535.35 347.254 536.029C346.067 538.02 343.651 538.201 342.253 536.391C341.235 535.078 340.939 533.494 340.981 531.819C340.981 531.446 341.053 531.073 341.124 530.699C341.148 530.575 341.172 530.45 341.193 530.326C341.574 528.425 343.142 527.656 344.795 528.515C346.491 529.33 347.847 531.684 347.847 533.766ZM364.513 516.705C364.552 516.569 364.59 516.432 364.63 516.296C364.503 515.028 363.994 514.033 363.02 513.173C362.957 513.115 362.89 513.058 362.823 513C362.572 512.782 362.306 512.553 362.172 512.267C361.452 510.91 359.459 510.638 358.231 512.313C356.917 514.123 356.874 516.929 358.188 518.785C359.799 521.048 362.596 520.867 363.91 518.423C364.185 517.872 364.348 517.291 364.513 516.705ZM387.474 539.649C387.432 541.278 386.796 542.727 385.397 543.677C383.532 544.99 381.201 544.175 380.481 541.957C379.591 539.287 380.524 536.662 383.49 535.666C384.634 535.259 385.694 535.666 386.499 536.662C387.177 537.477 387.432 538.473 387.474 539.649ZM367.181 544.423C367.243 544.17 367.305 543.917 367.385 543.677C367.3 541.233 364.8 538.473 362.553 538.473C361.155 538.427 360.053 539.514 360.138 540.916C360.18 541.777 360.265 542.636 360.434 543.496C360.689 544.854 361.282 546.031 362.384 546.8C363.952 547.932 365.944 547.434 366.792 545.623C366.976 545.258 367.079 544.84 367.181 544.423ZM344.202 509.597C344.202 511.136 343.482 512.403 342.295 512.901C341.108 513.399 339.752 513.037 338.82 511.905C337.548 510.321 337.167 508.466 337.548 506.429C337.718 505.66 338.099 505.026 338.65 504.528C339.837 503.578 341.362 503.894 342.168 505.207C342.422 505.614 342.719 506.022 343.015 506.429C343.821 507.425 344.202 508.42 344.202 509.597ZM323.084 527.336C323.041 527.514 323.003 527.669 322.969 527.791C323.054 529.783 323.435 531.14 324.537 532.136C326.19 533.675 328.521 533.087 329.326 530.96C329.835 529.556 329.665 528.244 328.817 527.067C328.478 526.569 328.224 526.117 328.097 525.528C327.8 524.261 326.614 523.582 325.385 523.944C324.579 524.171 323.944 524.759 323.605 525.574C323.357 526.201 323.2 526.853 323.084 527.336ZM349.076 551.236C349.076 552.095 348.864 552.956 348.313 553.77C347.127 555.399 345.008 555.535 343.566 554.041C342.21 552.639 341.829 550.104 342.676 548.294C343.228 547.117 344.202 546.574 345.431 546.755C345.474 546.755 345.505 546.766 345.537 546.778C345.569 546.789 345.601 546.8 345.643 546.8C347.974 547.162 349.076 548.565 349.076 551.236ZM374.717 556.124V558.975C374.717 559.835 374.971 560.966 375.819 561.871C377.217 563.365 379.421 562.912 380.184 561.012C381.032 558.93 379.506 554.992 377.557 554.132C376.116 553.499 374.717 554.494 374.717 556.124Z" fill="#AAC4E6"/>
<defs>
<clipPath id="clip0_1322_581">
<rect width="428" height="666" fill="white"/>
</clipPath>
</defs>
</svg>
