<svg width="1728" height="753" viewBox="0 0 1728 753" fill="none" xmlns="http://www.w3.org/2000/svg">
<g clip-path="url(#clip0_1336_835)">
<path fill-rule="evenodd" clip-rule="evenodd" d="M1494.88 401.563C1495.25 394.8 1500.25 391.291 1507.2 393.174C1510.07 393.944 1511.93 395.656 1512.76 398.31C1513.69 401.392 1513.41 404.474 1511.84 407.299C1510.17 410.209 1507.57 412.007 1503.87 411.921C1500.25 411.836 1497.75 409.867 1496.46 406.871C1495.85 405.628 1495.54 404.296 1495.24 403.004C1495.12 402.516 1495.01 402.033 1494.88 401.563ZM1424.93 569.006C1424.93 568.835 1424.93 568.321 1425.03 567.893C1425.58 566.437 1425.77 564.897 1425.77 563.27C1425.77 561.216 1427.71 559.675 1430.03 559.589C1431.05 559.589 1432.16 559.761 1432.99 560.103C1435.96 561.387 1438.74 563.013 1440.87 565.325C1445.22 569.862 1443.28 577.309 1437.16 579.45C1433.92 580.648 1430.49 579.792 1428.08 577.309C1426.32 575.426 1424.93 572.002 1424.93 569.006ZM1462.64 613.52C1461.16 614.89 1460.6 616.602 1460.6 617.715C1460.6 622.337 1462.92 626.189 1466.25 627.987C1470.42 630.213 1475.15 629.015 1477.46 625.077C1480.8 619.427 1476.91 611.636 1470.15 610.267C1467.55 609.753 1465.33 610.267 1463.66 612.407C1463.38 612.835 1463.01 613.178 1462.64 613.52ZM1596.88 551.371C1596.79 551.771 1596.72 552.18 1596.65 552.588C1596.5 553.407 1596.36 554.225 1596.05 554.967C1594.01 560.017 1587.62 561.301 1583.45 557.449C1581.32 555.565 1580.48 553.084 1580.11 550.429C1580.02 549.659 1579.84 548.803 1579.56 548.032C1578.26 544.951 1579.56 542.297 1582.99 541.269C1587.25 539.9 1592.9 541.869 1595.12 545.464C1596.23 547.262 1596.79 549.231 1596.88 551.371ZM1409.11 442.556C1409.07 442.752 1409.03 442.929 1409 443.081C1409.09 446.677 1409.74 449.245 1411.69 451.299C1413.72 453.525 1416.41 454.552 1419.56 454.039C1422.71 453.525 1424.75 451.642 1425.77 448.817C1427.62 443.766 1424.66 437.688 1418.82 436.49C1418.63 436.433 1418.45 436.385 1418.26 436.338C1417.89 436.243 1417.52 436.147 1417.15 435.976C1414.56 434.949 1411.32 435.976 1410.02 439.058C1409.56 440.325 1409.29 441.65 1409.11 442.556ZM1567.79 589.893C1567.79 593.403 1565.85 596.142 1562.7 597.084C1559.82 598.025 1556.86 597.17 1554.73 594.858C1552.32 592.119 1551.3 588.951 1551.39 585.527C1551.49 583.045 1552.97 580.99 1554.54 579.107C1555.56 577.909 1557.14 577.566 1558.81 577.823C1559.73 577.994 1560.66 578.336 1561.4 578.85C1564.74 580.905 1567.79 586.127 1567.79 589.893ZM1409.74 504.117V504.974C1409.83 508.826 1411.13 512.25 1414.84 514.475C1417.34 516.017 1420.02 516.358 1422.8 515.075C1425.49 513.791 1426.7 511.565 1426.79 508.912C1426.97 504.374 1424.47 501.036 1420.4 498.638C1420.02 498.382 1419.65 498.211 1419.19 498.125C1414.47 496.755 1410.02 499.58 1409.74 504.117ZM1533.24 592.975C1533.38 593.274 1533.5 593.587 1533.61 593.897C1533.79 594.385 1533.97 594.867 1534.26 595.286C1535.55 597.255 1536.57 599.224 1536.66 601.621C1536.76 604.189 1535.74 606.158 1533.24 607.356C1530.73 608.555 1528.33 608.126 1526.19 606.586C1523.69 604.874 1522.49 602.392 1521.93 599.566C1521.69 598.311 1521.52 597.055 1521.36 595.799V595.799C1521.27 595.171 1521.19 594.544 1521.1 593.916C1520.91 592.718 1521.19 591.434 1522.21 590.749L1522.37 590.646C1523.99 589.563 1525.7 588.422 1527.49 587.924C1530.92 586.982 1534.07 589.722 1533.24 592.975ZM1531.57 535.535C1529.07 538.102 1527.58 541.098 1527.68 544.009C1527.58 547.005 1528.05 548.889 1528.97 550.429C1530.46 552.741 1533.05 553.853 1535.74 553.511C1539.07 553.084 1542.13 550.515 1542.78 547.433C1543.52 543.924 1542.59 540.757 1540.28 537.931C1540 537.589 1539.75 537.27 1539.49 536.949L1539.49 536.946L1539.49 536.944C1539.23 536.624 1538.98 536.304 1538.7 535.962C1536.85 533.48 1533.79 533.309 1531.57 535.535ZM1470.7 579.707C1476.72 578.764 1481.63 585.27 1480.15 590.663C1478.95 595.029 1474.22 597.17 1469.77 595.372C1465.33 593.574 1462.46 588.096 1463.85 583.729C1464.49 581.333 1466.72 579.021 1470.7 579.707ZM1595.68 505.145C1594.1 507.456 1593.27 510.024 1593.36 512.763C1593.36 514.818 1593.83 516.701 1594.94 518.413C1596.6 520.982 1599.29 522.265 1602.16 521.837C1604.94 521.495 1607.26 519.441 1607.72 516.444C1608.56 511.736 1606.7 507.627 1603.37 504.203C1601.05 501.806 1597.53 502.405 1595.68 505.145ZM1452.64 534.744C1452.82 535.232 1453 535.715 1453.28 536.133C1454.67 538.359 1455.32 540.671 1454.86 543.238C1454.49 545.464 1453.19 547.176 1450.78 547.862C1448.28 548.632 1446.15 547.862 1444.39 546.149C1442.82 544.522 1441.98 542.554 1441.43 540.5C1441.15 539.472 1440.78 538.445 1440.22 537.503C1439.02 535.106 1439.67 532.88 1441.98 531.425C1442.44 531.168 1442.88 530.869 1443.32 530.569C1443.76 530.27 1444.2 529.97 1444.67 529.713C1446.43 528.685 1448.28 528.515 1450.13 529.456C1451.89 530.398 1452.64 531.854 1452.26 533.822C1452.41 534.122 1452.52 534.434 1452.64 534.744ZM1556.3 410.894C1558.81 409.696 1559.73 407.641 1559.82 405.415C1559.92 401.649 1557.14 397.369 1553.53 394.8C1549.82 392.147 1545.19 393.859 1544.63 398.225C1544.35 400.194 1544.45 402.334 1544.82 404.303C1545.28 406.785 1546.67 408.925 1548.99 410.381C1551.3 411.836 1553.8 412.178 1556.3 410.894ZM1493.31 551.542C1493.31 550.886 1493.3 550.23 1493.29 549.574C1493.27 548.261 1493.24 546.948 1493.31 545.636C1493.49 542.982 1496.18 541.269 1499.05 542.126C1500.25 542.469 1501.37 543.067 1502.29 543.838C1504.42 545.636 1505.91 547.776 1507.02 550.258C1507.85 552.141 1508.04 554.11 1507.2 556.079C1506.28 558.562 1504.42 560.103 1501.64 560.53C1498.77 560.959 1496.55 559.932 1494.88 557.791C1493.49 555.908 1493.03 553.768 1493.31 551.542ZM1581.69 450.7C1585.12 449.416 1587.34 446.163 1587.34 442.568C1587.34 439.058 1585.3 436.147 1582.24 435.206C1579 434.093 1575.3 435.206 1573.07 437.774C1570.57 440.685 1570.66 446.078 1573.26 448.903C1575.3 451.128 1578.63 451.813 1581.69 450.7ZM1491.73 473.557C1491.73 475.012 1491.36 476.553 1490.43 477.837C1487.84 481.603 1482.56 481.946 1479.5 478.522C1477.28 476.039 1476.63 473.043 1476.72 469.876C1476.72 469.17 1476.88 468.463 1477.04 467.757C1477.09 467.522 1477.14 467.286 1477.19 467.05C1478.02 463.455 1481.45 462 1485.06 463.626C1488.77 465.167 1491.73 469.619 1491.73 473.557ZM1528.16 441.288C1528.25 441.03 1528.33 440.772 1528.42 440.513C1528.14 438.116 1527.03 436.233 1524.9 434.607C1524.76 434.498 1524.62 434.39 1524.47 434.28C1523.92 433.868 1523.34 433.435 1523.05 432.895C1521.47 430.326 1517.12 429.813 1514.43 432.98C1511.56 436.404 1511.46 441.712 1514.34 445.222C1517.86 449.502 1523.97 449.159 1526.84 444.537C1527.44 443.495 1527.8 442.397 1528.16 441.288ZM1578.35 484.685C1578.26 487.767 1576.87 490.506 1573.81 492.304C1569.74 494.787 1564.64 493.245 1563.07 489.051C1561.12 484.001 1563.16 479.035 1569.65 477.152C1572.15 476.382 1574.46 477.152 1576.22 479.035C1577.71 480.577 1578.26 482.46 1578.35 484.685ZM1533.99 493.715C1534.13 493.236 1534.27 492.758 1534.44 492.304C1534.26 487.682 1528.79 482.46 1523.88 482.46C1520.82 482.374 1518.41 484.428 1518.6 487.082C1518.69 488.709 1518.88 490.335 1519.25 491.961C1519.8 494.53 1521.1 496.755 1523.51 498.211C1526.94 500.35 1531.29 499.409 1533.14 495.985C1533.55 495.294 1533.77 494.503 1533.99 493.715ZM1483.76 427.844C1483.76 430.754 1482.19 433.151 1479.59 434.093C1477 435.035 1474.04 434.35 1472 432.21C1469.22 429.213 1468.38 425.704 1469.22 421.851C1469.59 420.396 1470.42 419.198 1471.63 418.256C1474.22 416.458 1477.56 417.058 1479.32 419.54C1479.87 420.311 1480.52 421.081 1481.17 421.851C1482.93 423.735 1483.76 425.618 1483.76 427.844ZM1437.6 461.395C1437.51 461.732 1437.42 462.026 1437.35 462.257C1437.53 466.024 1438.37 468.591 1440.78 470.474C1444.39 473.386 1449.49 472.272 1451.25 468.25C1452.36 465.595 1451.99 463.113 1450.13 460.887C1449.39 459.945 1448.84 459.09 1448.56 457.976C1447.91 455.58 1445.32 454.296 1442.63 454.98C1440.87 455.408 1439.48 456.521 1438.74 458.062C1438.2 459.25 1437.85 460.482 1437.6 461.395ZM1494.42 506.6C1494.42 508.226 1493.95 509.853 1492.75 511.394C1490.16 514.475 1485.52 514.732 1482.37 511.907C1479.41 509.253 1478.58 504.46 1480.43 501.036C1481.63 498.81 1483.76 497.783 1486.45 498.125C1486.54 498.125 1486.61 498.147 1486.68 498.168C1486.75 498.189 1486.82 498.211 1486.91 498.211C1492.01 498.895 1494.42 501.549 1494.42 506.6ZM1550.47 515.846V521.239C1550.47 522.865 1551.02 525.005 1552.88 526.717C1555.93 529.542 1560.75 528.685 1562.42 525.09C1564.27 521.153 1560.94 513.705 1556.68 512.079C1553.53 510.88 1550.47 512.763 1550.47 515.846Z" fill="#AAC4E6"/>
<path d="M1754 698.452C1708.74 698.452 1672 667.83 1672 630.1C1672 592.369 1708.74 561.747 1754 561.747C1799.26 561.747 1836 592.369 1836 630.1C1836 667.83 1799.26 698.452 1754 698.452ZM1754 584.44C1723.82 584.44 1699.22 604.946 1699.22 630.1C1699.22 655.253 1723.82 675.759 1754 675.759C1784.18 675.759 1808.78 655.253 1808.78 630.1C1808.78 604.946 1784.18 584.44 1754 584.44Z" fill="#EFE8FF" stroke="#EFE8FF" stroke-width="1.64"/>
<path d="M1734.67 69.0938L1725.59 57.5695L1716.41 69.0938L1707.33 57.5695L1698.25 69.0938L1689.07 57.5695L1680 69.0938L1670 56.5496L1671.73 55.1218L1680 65.5243L1689.07 54L1698.25 65.5243L1707.33 54L1716.41 65.5243L1725.59 54L1734.67 65.5243L1743.75 54L1752.93 65.5243L1762 54L1772 66.6462L1770.27 67.972L1762 57.5695L1752.93 69.0938L1743.75 57.5695L1734.67 69.0938Z" fill="#7FE8BF" stroke="#7FE8BF" stroke-width="1.01993"/>
<path d="M1362 724C1358.69 724 1356 721.312 1356 718C1356 714.688 1358.69 712 1362 712C1365.31 712 1368 714.688 1368 718C1368 721.312 1365.31 724 1362 724ZM1362 713.992C1359.79 713.992 1357.99 715.792 1357.99 718C1357.99 720.208 1359.79 722.008 1362 722.008C1364.21 722.008 1366.01 720.208 1366.01 718C1366.01 715.792 1364.21 713.992 1362 713.992Z" fill="#C8A1FD" stroke="#C8A1FD" stroke-width="0.12"/>
</g>
<defs>
<clipPath id="clip0_1336_835">
<rect width="1728" height="753" fill="white"/>
</clipPath>
</defs>
</svg>
