<svg width="200" height="40" viewBox="0 0 200 40" fill="none" xmlns="http://www.w3.org/2000/svg">
<g clip-path="url(#clip0_1335_822)">
<path d="M23.8544 7.78734L12.2973 15.1512L23.8544 22.5151L12.2973 29.879L0.740234 22.4753L12.2973 15.1114L0.740234 7.78734L12.2973 0.423462L23.8544 7.78734ZM12.2375 32.2473L23.7946 24.8835L35.3517 32.2473L23.7946 39.6112L12.2375 32.2473ZM23.8544 22.4753L35.4114 15.1114L23.8544 7.78734L35.3517 0.423462L46.9087 7.78734L35.3517 15.1512L46.9087 22.5151L35.3517 29.879L23.8544 22.4753Z" fill="white"/>
<path d="M55.9746 7.78735H65.3199C71.2778 7.78735 76.1995 11.2305 76.1995 19.0919V20.7438C76.1995 28.6649 71.5966 32.2274 65.4992 32.2274H55.9746V7.78735ZM61.1952 12.2256V27.7693H65.2003C68.5877 27.7693 70.8593 25.5602 70.8593 20.6443V19.3506C70.8593 14.4347 68.4682 12.2256 65.021 12.2256H61.1952ZM78.9692 12.4644H83.1536L83.8311 17.0618C84.6282 13.9372 86.6606 12.2654 90.3469 12.2654H91.6421V17.5395H89.4901C85.2459 17.5395 84.2097 19.0123 84.2097 23.1918V32.2872H79.0489V12.4644H78.9692ZM92.6782 22.7738V22.2166C92.6782 15.5891 96.9225 11.9668 102.701 11.9668C108.599 11.9668 112.724 15.5891 112.724 22.2166V22.7738C112.724 29.2819 108.719 32.7847 102.701 32.7847C96.3048 32.725 92.6782 29.3018 92.6782 22.7738ZM107.443 22.7141V22.2166C107.443 18.5346 105.59 16.3255 102.641 16.3255C99.752 16.3255 97.8391 18.3555 97.8391 22.2166V22.7141C97.8391 26.2766 99.6922 28.3067 102.641 28.3067C105.59 28.247 107.443 26.2766 107.443 22.7141ZM115.434 12.4644H119.738L120.236 16.206C121.272 13.6983 123.484 11.9668 126.752 11.9668C131.793 11.9668 135.121 15.5891 135.121 22.2962V22.8534C135.121 29.3615 131.434 32.8046 126.752 32.8046C123.623 32.8046 121.471 31.3915 120.415 29.1227V39.1336H115.374L115.434 12.4644ZM129.88 22.7141V22.2763C129.88 18.3356 127.848 16.3852 125.138 16.3852C122.248 16.3852 120.336 18.5943 120.336 22.2763V22.6544C120.336 26.1572 122.189 28.3664 125.078 28.3664C128.047 28.3067 129.88 26.416 129.88 22.7141ZM142.752 28.6251L142.314 32.2473H137.89V5.83691H142.932V15.9672C144.047 13.3799 146.259 11.9668 149.388 11.9668C154.13 12.0265 157.637 15.2905 157.637 21.8583V22.4753C157.637 29.0431 154.309 32.8046 149.268 32.8046C145.94 32.725 143.788 31.1925 142.752 28.6251ZM152.337 22.4753V21.9777C152.337 18.3555 150.364 16.3255 147.594 16.3255C144.765 16.3255 142.792 18.5943 142.792 22.0374V22.4753C142.792 26.1572 144.705 28.3067 147.534 28.3067C150.563 28.3067 152.337 26.416 152.337 22.4753ZM159.849 22.7738V22.2166C159.849 15.5891 164.093 11.9668 169.871 11.9668C175.77 11.9668 179.894 15.5891 179.894 22.2166V22.7738C179.894 29.2819 175.829 32.7847 169.871 32.7847C163.475 32.725 159.849 29.3018 159.849 22.7738ZM174.654 22.7141V22.2166C174.654 18.5346 172.801 16.3255 169.852 16.3255C166.962 16.3255 165.049 18.3555 165.049 22.2166V22.7141C165.049 26.2766 166.903 28.3067 169.852 28.3067C172.821 28.247 174.654 26.2766 174.654 22.7141ZM186.649 21.9777L179.695 12.4644H185.653L189.658 18.4152L193.723 12.4644H199.621L192.567 21.918L200 32.2473H194.161L189.618 25.6796L185.195 32.2473H179.097L186.649 21.9777Z" fill="white"/>
</g>
<defs>
<clipPath id="clip0_1335_822">
<rect width="199.26" height="39.1877" fill="white" transform="translate(0.740234 0.423462)"/>
</clipPath>
</defs>
</svg>
