<svg width="200" height="38" viewBox="0 0 200 38" fill="none" xmlns="http://www.w3.org/2000/svg">
<g clip-path="url(#clip0_1335_794)">
<path d="M4.41728 29.5495C3.68316 29.5512 2.96176 29.3578 2.32679 28.9894C1.69183 28.6209 1.16605 28.0905 0.803176 27.4523C0.445855 26.8186 0.267649 26.0997 0.287649 25.3725C0.307648 24.6453 0.525099 23.9372 0.916708 23.3241L8.35937 11.6364C8.7403 11.0082 9.28113 10.4925 9.92661 10.1417C10.5721 9.791 11.2991 9.61789 12.0334 9.64008C12.7671 9.65766 13.483 9.86987 14.1078 10.255C14.7325 10.6401 15.2438 11.1843 15.5892 11.8319C16.283 13.1439 16.1962 14.7223 15.3652 15.9538L7.92732 27.6415C7.55013 28.2293 7.03067 28.7123 6.41709 29.0459C5.8035 29.3794 5.11565 29.5527 4.41728 29.5495Z" fill="white"/>
<path d="M17.1832 29.5493C15.6821 29.5493 14.3007 28.7467 13.5754 27.4568C13.2189 26.8248 13.0411 26.1077 13.0611 25.3824C13.0811 24.6571 13.2981 23.9509 13.6889 23.3396L21.1174 11.6787C21.4927 11.0417 22.0316 10.5167 22.6782 10.1582C23.3248 9.79972 24.0555 9.62073 24.7946 9.63981C26.3083 9.67292 27.6802 10.5197 28.374 11.8443C29.0631 13.1688 28.9622 14.7567 28.1059 15.9851L20.679 27.646C20.303 28.2313 19.7857 28.7124 19.1747 29.045C18.5637 29.3777 17.8788 29.5511 17.1832 29.5493Z" fill="white"/>
<path d="M29.6637 29.647C31.7799 29.647 33.4955 27.9675 33.4955 25.8956C33.4955 23.8238 31.7799 22.1443 29.6637 22.1443C27.5475 22.1443 25.832 23.8238 25.832 25.8956C25.832 27.9675 27.5475 29.647 29.6637 29.647Z" fill="white"/>
<path d="M196.125 22.3619C197.282 22.3619 197.974 23.185 197.974 24.5332V29.1534H199.546V24.4276C199.546 22.1348 198.466 20.8055 196.435 20.8055C195.641 20.8055 194.379 21.0231 193.627 22.4849C193.452 22.0537 193.164 21.678 192.793 21.3976C192.421 21.1171 191.981 20.9425 191.519 20.8923C191.228 20.8389 190.931 20.8215 190.636 20.8402C189.989 20.8923 188.838 21.2944 188.408 22.2058V20.9806H186.834V29.1534H188.408V24.743C188.408 23.0273 189.53 22.3619 190.655 22.3619C191.708 22.3619 192.4 23.1677 192.4 24.5159V29.1534H193.964V24.743C193.964 23.3774 194.784 22.3461 196.125 22.3619ZM181.058 27.7879C181.777 27.8036 182.471 27.5167 182.974 26.9963C183.478 26.4759 183.747 25.7679 183.72 25.041C183.72 23.3947 182.509 22.3619 181.058 22.3619C179.606 22.3619 178.396 23.3947 178.396 25.041C178.368 25.7663 178.636 26.4728 179.137 26.9916C179.639 27.5119 180.33 27.8005 181.045 27.7879H181.058ZM181.058 29.3206C178.759 29.3206 176.84 27.6223 176.84 25.0315C176.84 22.4407 178.759 20.7961 181.058 20.7961C183.357 20.7961 185.292 22.4407 185.292 25.0315C185.292 27.6223 183.346 29.3285 181.047 29.3285L181.058 29.3206ZM168.743 25.0315L168.727 25.041C168.727 22.4502 170.697 20.8055 173.011 20.7961C173.593 20.7848 174.17 20.8958 174.706 21.1218C175.242 21.3478 175.725 21.6838 176.123 22.108L174.93 23.1235C174.677 22.8749 174.377 22.6789 174.048 22.5468C173.719 22.4147 173.366 22.3492 173.011 22.354C171.561 22.354 170.299 23.3869 170.299 25.0315C170.299 26.1432 170.96 27.1445 171.974 27.5703C172.988 27.996 174.155 27.7595 174.93 26.9742L176.14 27.9897C175.741 28.4183 175.256 28.7583 174.717 28.9876C174.178 29.2168 173.597 29.3303 173.011 29.3206C170.714 29.3206 168.743 27.6223 168.743 25.0315ZM163.708 27.5845C163.706 27.4416 163.733 27.2998 163.786 27.1671C163.839 27.0345 163.918 26.9136 164.018 26.8114C164.118 26.7092 164.237 26.6276 164.368 26.5714C164.499 26.5152 164.641 26.4855 164.783 26.4838C164.926 26.4855 165.068 26.5152 165.199 26.5714C165.33 26.6276 165.449 26.7092 165.549 26.8114C165.649 26.9136 165.728 27.0345 165.781 27.1671C165.834 27.2998 165.861 27.4416 165.859 27.5845C165.845 27.8612 165.726 28.1221 165.526 28.3141C165.326 28.506 165.061 28.6144 164.783 28.6173C164.506 28.6144 164.241 28.506 164.041 28.3141C163.841 28.1221 163.722 27.8612 163.708 27.5845Z" fill="white"/>
<path fill-rule="evenodd" clip-rule="evenodd" d="M168.009 10.5906H162.41L158.485 20.7093L154.581 10.5906H148.981L155.789 26.58L151.555 37.1513H157.113L168.009 10.5906ZM133.956 19.4841C133.956 22.0386 136.188 23.7195 138.382 23.7195C140.537 23.7195 142.655 22.1553 142.655 19.4825C142.655 16.8097 140.537 15.2439 138.382 15.2439C136.188 15.2439 133.956 16.928 133.956 19.4841ZM142.655 28.4123V26.3892C141.52 28.1079 138.871 28.7576 137.511 28.7576C133.011 28.7576 128.509 25.2097 128.509 19.4825C128.509 13.7569 133.01 10.209 137.511 10.209C138.645 10.209 141.294 10.5874 142.655 12.5743V10.5969H147.874V28.4154L142.655 28.4123ZM127.024 28.4123H121.805V26.1984C120.933 27.8383 118.818 28.7939 116.623 28.7939C112.083 28.7939 108.074 25.1687 108.074 19.555C108.074 13.8358 112.083 10.2058 116.623 10.2058C118.815 10.2058 120.936 11.1204 121.805 12.7619V0.883423H127.024V28.4123ZM121.691 19.4431C121.691 16.7719 119.763 15.2061 117.607 15.2061C115.374 15.2061 113.52 16.8854 113.52 19.4431C113.52 22.0828 115.374 23.7542 117.605 23.7542C119.802 23.7574 121.691 22.0008 121.691 19.4431ZM95.1687 18.9826C95.1687 16.2736 96.5689 15.3574 98.4217 15.3574C100.199 15.3574 101.485 16.5401 101.485 18.9054V28.4091H106.743V17.7622C106.743 12.6878 104.245 10.2058 100.273 10.2058C98.1931 10.2058 96.1132 11.3885 95.1671 13.1829V10.5906H89.9131V28.4091H95.1687V18.9826ZM79.2379 28.715C74.2457 28.715 70.0813 25.052 70.0813 19.4415C70.0813 13.8279 74.2409 10.2011 79.2379 10.2011C84.2349 10.2011 88.4309 13.8279 88.4309 19.4415C88.4309 25.0551 84.2302 28.715 79.2379 28.715ZM79.2379 23.5272C81.4297 23.5272 83.2478 21.9219 83.2478 19.4431C83.2478 17.0384 81.4313 15.3969 79.2379 15.3969C78.7098 15.3886 78.1855 15.4879 77.697 15.6888C77.2085 15.8897 76.766 16.1879 76.3965 16.5653C76.0248 16.9447 75.7331 17.395 75.5389 17.8894C75.3447 18.3838 75.2518 18.9121 75.2659 19.4431C75.2675 21.9251 77.0824 23.5272 79.2379 23.5272ZM60.6565 15.359C62.2065 15.359 63.5689 16.5811 63.5689 18.907V28.4123H68.7882V18.292C68.7882 12.9117 66.1723 10.2027 61.9795 10.2027C60.7338 10.2027 58.3874 10.5811 56.6845 13.369C55.7005 11.3081 53.8099 10.2389 51.0157 10.2389C50.0456 10.234 49.0946 10.5086 48.2764 11.0298C47.4582 11.5511 46.8075 12.2969 46.4019 13.1782V10.5922H41.1416V28.4107H46.3972V18.9826C46.3972 16.2736 47.8731 15.3574 49.461 15.3574C50.9747 15.3574 52.334 16.5401 52.3734 18.7918V28.4107H57.6306V18.9826C57.6306 16.3919 58.9929 15.359 60.6565 15.359Z" fill="white"/>
</g>
<defs>
<clipPath id="clip0_1335_794">
<rect width="199.26" height="36.2678" fill="white" transform="translate(0.286133 0.883423)"/>
</clipPath>
</defs>
</svg>
