<svg width="160" height="42" viewBox="0 0 160 42" fill="none" xmlns="http://www.w3.org/2000/svg">
<path d="M51.0176 32.6102L53.0028 27.9859C55.1481 29.5916 57.9979 30.4265 60.8157 30.4265C62.897 30.4265 64.2098 29.6237 64.2098 28.4034C64.1778 24.9994 51.754 27.6648 51.658 19.1226C51.626 14.7873 55.4683 11.4475 60.9117 11.4475C64.1457 11.4475 67.3797 12.2503 69.6852 14.0808L67.828 18.8015C65.7147 17.4527 63.0891 16.4893 60.5915 16.4893C58.8945 16.4893 57.7738 17.2922 57.7738 18.3198C57.8058 21.6596 70.3256 19.8291 70.4537 27.9859C70.4537 32.4176 66.7073 35.5326 61.328 35.5326C57.3895 35.5326 53.7713 34.6013 51.0176 32.6102Z" fill="white"/>
<path d="M127.193 26.316C126.2 28.0501 124.343 29.2383 122.198 29.2383C119.028 29.2383 116.466 26.6693 116.466 23.49C116.466 20.3108 119.028 17.7417 122.198 17.7417C124.343 17.7417 126.2 18.9299 127.193 20.6641L132.668 17.6133C130.619 13.9524 126.681 11.4475 122.198 11.4475C115.57 11.4475 110.19 16.8426 110.19 23.49C110.19 30.1375 115.57 35.5326 122.198 35.5326C126.713 35.5326 130.619 33.0598 132.668 29.3668L127.193 26.316Z" fill="white"/>
<path d="M80.0593 1.46021H73.207V35.0829H80.0593V1.46021Z" fill="white"/>
<path d="M135.358 1.46021V35.0829H142.211V24.9993L150.344 35.0829H159.117L148.775 23.1046L158.349 11.9292H149.959L142.211 21.21V1.46021H135.358Z" fill="white"/>
<path d="M100.425 26.3802C99.432 28.018 97.3827 29.2383 95.0773 29.2383C91.9073 29.2383 89.3457 26.6693 89.3457 23.49C89.3457 20.3108 91.9073 17.7417 95.0773 17.7417C97.3827 17.7417 99.432 19.0263 100.425 20.6962V26.3802ZM100.425 11.9292V14.6589C99.3039 12.7642 96.5182 11.4475 93.6044 11.4475C87.5846 11.4475 82.8457 16.7783 82.8457 23.4579C82.8457 30.1375 87.5846 35.5326 93.6044 35.5326C96.5182 35.5326 99.3039 34.2159 100.425 32.3212V35.0509H107.277V11.9292H100.425Z" fill="white"/>
<path d="M8.6554 26.3481C8.6554 28.6924 6.76623 30.5871 4.42877 30.5871C2.09132 30.5871 0.202148 28.6924 0.202148 26.3481C0.202148 24.0038 2.09132 22.1091 4.42877 22.1091H8.6554V26.3481Z" fill="white"/>
<path d="M10.7686 26.3481C10.7686 24.0038 12.6577 22.1091 14.9952 22.1091C17.3326 22.1091 19.2218 24.0038 19.2218 26.3481V36.9455C19.2218 39.2898 17.3326 41.1845 14.9952 41.1845C12.6577 41.1845 10.7686 39.2898 10.7686 36.9455V26.3481Z" fill="white"/>
<path d="M14.9952 9.32804C12.6577 9.32804 10.7686 7.43335 10.7686 5.08907C10.7686 2.74479 12.6577 0.850098 14.9952 0.850098C17.3326 0.850098 19.2218 2.74479 19.2218 5.08907V9.32804H14.9952Z" fill="white"/>
<path d="M14.9951 11.4796C17.3326 11.4796 19.2218 13.3743 19.2218 15.7186C19.2218 18.0629 17.3326 19.9576 14.9951 19.9576H4.39655C2.0591 19.9576 0.169922 18.0629 0.169922 15.7186C0.169922 13.3743 2.0591 11.4796 4.39655 11.4796H14.9951Z" fill="white"/>
<path d="M31.9336 15.7186C31.9336 13.3743 33.8228 11.4796 36.1602 11.4796C38.4977 11.4796 40.3868 13.3743 40.3868 15.7186C40.3868 18.0629 38.4977 19.9576 36.1602 19.9576H31.9336V15.7186Z" fill="white"/>
<path d="M29.8204 15.7186C29.8204 18.0629 27.9313 19.9576 25.5938 19.9576C23.2564 19.9576 21.3672 18.0629 21.3672 15.7186V5.08907C21.3672 2.74479 23.2564 0.850098 25.5938 0.850098C27.9313 0.850098 29.8204 2.74479 29.8204 5.08907V15.7186Z" fill="white"/>
<path d="M25.5938 32.7065C27.9313 32.7065 29.8204 34.6012 29.8204 36.9455C29.8204 39.2898 27.9313 41.1845 25.5938 41.1845C23.2564 41.1845 21.3672 39.2898 21.3672 36.9455V32.7065H25.5938Z" fill="white"/>
<path d="M25.5938 30.5871C23.2564 30.5871 21.3672 28.6924 21.3672 26.3481C21.3672 24.0038 23.2564 22.1091 25.5938 22.1091H36.1924C38.5298 22.1091 40.419 24.0038 40.419 26.3481C40.419 28.6924 38.5298 30.5871 36.1924 30.5871H25.5938Z" fill="white"/>
</svg>
