<svg width="130" height="55" viewBox="0 0 130 55" fill="none" xmlns="http://www.w3.org/2000/svg">
<path fill-rule="evenodd" clip-rule="evenodd" d="M129.661 27.9192C129.661 18.685 125.2 11.3986 116.673 11.3986C108.11 11.3986 102.93 18.6849 102.93 27.847C102.93 38.7045 109.046 44.1873 117.824 44.1873C122.106 44.1873 125.344 43.2134 127.79 41.8427V34.6284C125.344 35.8549 122.537 36.6124 118.976 36.6124C115.486 36.6124 112.392 35.3859 111.996 31.1295H129.589C129.589 30.6606 129.661 28.7849 129.661 27.9192ZM111.888 24.4924C111.888 20.4164 114.371 18.721 116.637 18.721C118.832 18.721 121.17 20.4164 121.17 24.4924H111.888Z" fill="white"/>
<path fill-rule="evenodd" clip-rule="evenodd" d="M89.0427 11.3986C85.5169 11.3986 83.2504 13.0578 81.9911 14.2121L81.5234 11.9757H73.6084V54.0348L82.6028 52.123L82.6387 41.9148C83.9339 42.8527 85.8407 44.1873 89.0067 44.1873C95.4467 44.1873 101.311 38.9931 101.311 27.5585C101.275 17.0978 95.3388 11.3986 89.0427 11.3986ZM86.8841 36.2516C84.7614 36.2516 83.5022 35.4942 82.6387 34.5563L82.6028 21.1739C83.5382 20.1278 84.8334 19.4064 86.8841 19.4064C90.158 19.4064 92.4246 23.0856 92.4246 27.811C92.4246 32.6445 90.194 36.2516 86.8841 36.2516Z" fill="white"/>
<path fill-rule="evenodd" clip-rule="evenodd" d="M61.2324 9.27031L70.2628 7.32246V0L61.2324 1.91178V9.27031Z" fill="white"/>
<path d="M70.2628 12.0117H61.2324V43.5741H70.2628V12.0117Z" fill="white"/>
<path fill-rule="evenodd" clip-rule="evenodd" d="M51.5538 14.681L50.9782 12.0118H43.207V43.5741H52.2014V22.1839C54.3241 19.4064 57.9218 19.9114 59.0371 20.3082V12.0118C57.8858 11.5789 53.6765 10.7853 51.5538 14.681Z" fill="white"/>
<path fill-rule="evenodd" clip-rule="evenodd" d="M33.5655 4.1842L24.787 6.05991L24.751 34.953C24.751 40.2915 28.7445 44.2233 34.0691 44.2233C37.0193 44.2233 39.1779 43.6822 40.3652 43.0329V35.7105C39.2139 36.1794 33.5295 37.8387 33.5295 32.5001V19.6948H40.3652V12.0117H33.5295L33.5655 4.1842Z" fill="white"/>
<path fill-rule="evenodd" clip-rule="evenodd" d="M9.24488 21.1739C9.24488 19.7671 10.3962 19.226 12.303 19.226C15.0372 19.226 18.4911 20.0557 21.2254 21.5346V13.0578C18.2392 11.8675 15.2891 11.3986 12.303 11.3986C4.99954 11.3986 0.142578 15.2221 0.142578 21.6067C0.142578 31.5624 13.814 29.9752 13.814 34.2677C13.814 35.927 12.3749 36.4681 10.3602 36.4681C7.37405 36.4681 3.56044 35.2417 0.53833 33.5824V42.1673C3.88423 43.6102 7.26612 44.2234 10.3602 44.2234C17.8435 44.2234 22.9883 40.508 22.9883 34.0513C22.9523 23.3021 9.24488 25.2138 9.24488 21.1739Z" fill="white"/>
</svg>
