<svg width="130" height="30" viewBox="0 0 130 30" fill="none" xmlns="http://www.w3.org/2000/svg">
<path d="M27.1599 29.2445H4.13057C2.60283 29.2445 1.18825 28.4541 0.452665 27.0991C-0.339499 25.5183 -0.0565832 23.6552 1.18825 22.4696L17.2013 6.49231H5.7149C2.54624 6.49231 0 3.89529 0 0.790156H21.2187C22.7464 0.790156 24.161 1.58055 24.8966 2.93552C25.6888 4.51631 25.4058 6.37939 24.161 7.56499L8.14797 23.5423H21.445C24.6137 23.5423 27.1599 26.1393 27.1599 29.2445ZM118.372 0.338501C115.09 0.338501 112.091 1.74992 110.054 4.06466C108.017 1.80638 105.018 0.338501 101.737 0.338501C95.6255 0.338501 90.5896 5.53254 90.5896 11.6299V29.2445C93.7583 29.2445 96.3045 26.7039 96.3045 23.5423V11.5734C96.3045 8.63767 98.5679 6.15357 101.51 6.04065C104.622 5.92774 107.169 8.41184 107.169 11.4605V23.5423C107.169 26.7039 109.715 29.2445 112.883 29.2445V11.5734C112.883 8.63767 115.147 6.15357 118.089 6.04065C121.201 5.92774 123.747 8.41184 123.747 11.4605V23.5423C123.747 26.7039 126.294 29.2445 129.462 29.2445V11.6299C129.519 5.53254 124.483 0.338501 118.372 0.338501ZM56.0173 15.0173C56.0173 23.0906 49.3971 29.6961 41.3057 29.6961C33.1577 29.6961 26.5941 23.0906 26.5941 15.0173C26.5941 6.94396 33.2143 0.338501 41.3057 0.338501C49.3971 0.338501 56.0173 6.94396 56.0173 15.0173ZM50.3024 15.0173C50.3024 10.0491 46.285 6.04065 41.3057 6.04065C36.3264 6.04065 32.309 10.0491 32.309 15.0173C32.309 19.9855 36.3264 23.994 41.3057 23.994C46.285 23.994 50.3024 19.9855 50.3024 15.0173ZM87.7605 15.0173C87.7605 23.0906 81.1403 29.6961 73.0489 29.6961C64.9009 29.6961 58.3372 23.0906 58.3372 15.0173C58.3372 6.94396 64.9575 0.338501 73.0489 0.338501C81.1403 0.338501 87.7605 6.94396 87.7605 15.0173ZM82.0456 15.0173C82.0456 10.0491 78.0282 6.04065 73.0489 6.04065C68.0695 6.04065 64.0521 10.0491 64.0521 15.0173C64.0521 19.9855 68.0695 23.994 73.0489 23.994C78.0282 23.994 82.0456 19.9855 82.0456 15.0173Z" fill="white"/>
</svg>
