<?xml version="1.0" standalone="no"?>
<!DOCTYPE svg PUBLIC "-//W3C//DTD SVG 20010904//EN"
 "http://www.w3.org/TR/2001/REC-SVG-20010904/DTD/svg10.dtd">
<svg version="1.0" xmlns="http://www.w3.org/2000/svg"
 width="476.000000pt" height="476.000000pt" viewBox="0 0 476.000000 476.000000"
 preserveAspectRatio="xMidYMid meet">
<metadata>
Created by potrace 1.14, written by Peter Selinger 2001-2017
</metadata>
<g transform="translate(0.000000,476.000000) scale(0.100000,-0.100000)"
fill="#000000" stroke="none">
<path d="M1490 3331 c0 -4 -24 -9 -54 -10 -30 0 -66 -5 -81 -11 -14 -5 -39
-10 -54 -10 -15 0 -31 -3 -35 -7 -4 -4 -21 -8 -39 -9 -55 -3 -58 -4 -53 -12 3
-5 -1 -9 -9 -9 -8 0 -12 5 -8 10 3 5 -3 4 -14 -2 -16 -8 -24 -6 -40 8 -15 14
-24 16 -38 9 -12 -7 -16 -7 -12 -1 4 6 -4 11 -18 11 -14 0 -22 -4 -19 -9 5 -8
-26 -14 -49 -10 -5 1 -6 -3 -2 -9 3 -5 -1 -10 -9 -10 -8 0 -21 -9 -29 -20 -8
-11 -17 -17 -20 -13 -4 3 -7 -5 -7 -18 0 -17 -3 -20 -9 -10 -6 9 -10 10 -12 2
-3 -7 -14 -13 -27 -14 -12 0 -22 -4 -22 -7 0 -4 -22 -13 -50 -20 -28 -7 -50
-17 -50 -20 0 -4 -6 -7 -12 -8 -25 -2 -88 -27 -88 -34 0 -5 -8 -8 -17 -8 -10
0 -26 -7 -36 -15 -11 -7 -26 -11 -35 -8 -9 4 -13 2 -9 -4 4 -7 -5 -14 -23 -18
-16 -4 -30 -12 -30 -18 0 -7 -4 -6 -10 3 -8 13 -10 13 -10 -1 0 -15 -42 -35
-63 -30 -5 1 -6 -2 -3 -7 6 -9 -42 -37 -57 -33 -5 1 -6 -3 -2 -9 3 -5 1 -10
-5 -10 -6 0 -18 -7 -27 -15 -8 -8 -19 -12 -25 -9 -7 4 -8 2 -4 -4 4 -7 3 -12
-3 -12 -15 0 -144 -133 -161 -166 -8 -16 -19 -32 -25 -36 -5 -4 -6 -8 -1 -8 5
0 3 -7 -4 -15 -7 -8 -9 -15 -4 -15 5 0 4 -4 -3 -8 -7 -4 -13 -22 -15 -40 -1
-17 -9 -34 -16 -37 -12 -4 -11 -9 4 -27 11 -12 13 -18 6 -14 -18 11 -6 -93 18
-152 10 -26 19 -43 19 -39 1 4 11 -3 23 -16 26 -27 60 -29 85 -4 10 9 13 17 7
17 -6 0 -11 7 -12 15 -1 8 -3 22 -4 30 -1 8 -5 15 -10 15 -4 0 -8 11 -8 25 0
14 -4 25 -8 25 -13 0 -14 107 -2 115 8 5 7 11 -1 21 -8 10 -8 14 0 14 6 0 11
7 11 15 0 8 5 15 11 15 5 0 8 3 6 8 -3 4 4 23 14 42 11 19 19 28 19 20 0 -8 8
0 16 17 9 18 20 31 23 28 4 -2 14 5 21 16 8 10 24 19 35 19 16 0 17 2 5 10
-13 8 -12 10 3 10 9 0 17 5 17 10 0 6 7 10 15 10 8 0 15 5 15 10 0 6 10 10 23
10 18 0 19 2 7 10 -13 8 -13 10 2 10 28 0 68 22 61 34 -3 6 -3 8 1 4 5 -4 24
2 44 12 19 11 40 16 45 13 6 -3 7 -1 3 5 -5 8 1 12 14 12 13 0 19 4 14 11 -5
8 1 10 20 7 18 -4 26 -1 26 9 0 9 6 13 15 9 8 -3 15 0 15 6 0 6 3 8 7 5 3 -4
12 -2 20 4 7 6 13 8 13 3 0 -5 4 -4 8 2 10 15 62 27 62 14 0 -5 -5 -10 -11
-10 -5 0 -8 -4 -5 -9 3 -5 -1 -11 -9 -15 -8 -3 -15 -15 -15 -26 0 -11 -3 -20
-8 -20 -4 0 -14 -15 -21 -32 -8 -18 -21 -39 -28 -46 -7 -8 -11 -18 -8 -23 4
-5 1 -9 -4 -9 -6 0 -11 -7 -11 -15 0 -8 -4 -15 -10 -15 -5 0 -10 -7 -10 -15 0
-8 -5 -15 -11 -15 -6 0 -9 -6 -7 -12 4 -12 0 -20 -28 -51 -6 -7 -15 -28 -19
-45 -3 -18 -11 -30 -16 -26 -5 3 -9 -2 -9 -10 0 -9 -9 -31 -20 -51 -11 -20
-20 -42 -20 -51 0 -8 -4 -12 -10 -9 -6 4 -10 -5 -10 -20 0 -15 -4 -24 -10 -20
-5 3 -11 -1 -11 -9 -1 -9 -3 -19 -4 -23 -2 -5 -6 -18 -10 -30 -4 -13 -12 -23
-17 -23 -5 0 -7 -4 -3 -9 3 -5 -2 -16 -10 -25 -9 -8 -16 -18 -15 -21 2 -31 -2
-45 -10 -40 -6 4 -10 -5 -10 -20 0 -14 -4 -24 -8 -21 -4 2 -9 -7 -10 -20 -1
-14 -9 -32 -17 -40 -18 -18 -20 -28 -4 -18 6 3 3 -5 -6 -19 -9 -15 -13 -32 -9
-38 4 -8 3 -9 -4 -5 -8 5 -12 0 -12 -13 0 -12 0 -23 0 -26 0 -3 -9 -21 -20
-41 -11 -19 -15 -32 -9 -28 8 5 9 3 3 -7 -10 -17 -15 -36 -17 -66 0 -12 -5
-19 -9 -17 -4 3 -8 -8 -8 -23 0 -16 -6 -35 -12 -42 -11 -11 -10 -12 2 -6 12 6
13 5 3 -6 -7 -7 -13 -28 -13 -45 0 -18 -3 -35 -7 -37 -15 -9 -15 -187 -1 -205
8 -9 8 -13 1 -9 -19 12 9 -51 34 -75 26 -25 69 -27 91 -4 16 16 16 19 0 46 -9
17 -13 30 -9 30 12 0 8 33 -4 43 -7 4 -6 10 1 15 5 4 9 21 9 37 -1 17 3 52 10
77 6 25 11 55 10 67 -1 11 1 18 5 16 5 -3 30 89 34 127 1 3 4 10 9 14 4 4 7
16 7 26 0 10 5 18 10 18 6 0 10 14 10 31 0 17 4 28 10 24 6 -3 10 3 10 13 0
11 7 32 14 48 8 15 13 31 10 36 -3 4 -1 8 3 8 5 0 14 9 21 21 8 12 9 18 4 15
-6 -3 -5 5 1 19 7 14 16 25 20 25 5 0 6 4 2 9 -3 5 2 17 11 25 8 9 13 16 9 16
-3 0 2 11 11 25 9 14 13 25 9 25 -5 0 -1 8 7 18 20 22 71 130 71 148 0 8 3 12
6 9 2 -3 16 18 29 47 13 29 29 56 36 60 7 5 7 8 -3 8 -9 0 -7 6 7 19 12 10 22
26 22 35 0 9 5 16 10 16 6 0 10 6 10 14 0 20 26 67 33 59 4 -3 5 4 2 15 -2 11
3 23 11 26 8 3 14 12 14 21 0 8 5 15 11 15 5 0 7 5 4 10 -3 6 -1 10 5 10 6 0
8 5 5 10 -3 6 -1 10 5 10 6 0 8 5 5 10 -3 6 -1 10 5 10 6 0 8 5 5 10 -3 6 -1
10 6 10 7 0 9 3 6 6 -4 4 1 14 11 23 9 9 28 39 42 68 15 31 28 47 32 40 5 -8
8 -5 8 6 0 25 26 49 54 51 13 0 22 4 19 9 -2 4 13 7 34 7 22 0 44 5 50 11 8 8
13 8 18 -1 4 -7 11 -8 18 -1 7 5 28 10 47 12 19 2 41 8 49 13 11 8 13 8 7 -1
-4 -7 -2 -13 3 -13 6 0 11 4 11 8 0 7 36 10 178 12 37 1 50 5 45 13 -5 9 -3 9
8 1 8 -6 50 -12 94 -13 113 -4 129 -5 135 -13 3 -3 23 -8 45 -9 22 -2 49 -12
59 -21 11 -10 26 -18 33 -18 7 0 13 -6 13 -12 0 -10 3 -9 9 1 5 7 13 11 19 7
24 -15 38 123 16 164 -8 14 -14 21 -14 16 0 -5 -11 1 -24 13 -14 13 -36 24
-49 25 -14 0 -23 4 -20 9 2 4 -12 7 -32 7 -20 0 -34 4 -31 9 3 5 -48 9 -114 9
-88 0 -118 -3 -113 -11 5 -8 2 -8 -8 0 -12 10 -18 10 -29 0 -10 -9 -11 -9 -6
1 4 6 2 12 -3 12 -6 0 -11 -4 -11 -9z m320 -41 c0 -4 -7 -7 -15 -6 -23 3 -26
12 -5 13 11 1 20 -2 20 -7z m45 -20 c-3 -5 -10 -10 -16 -10 -5 0 -9 5 -9 10 0
6 7 10 16 10 8 0 12 -4 9 -10z m45 -32 l22 -33 -26 30 c-15 17 -26 24 -26 16
0 -8 -3 -12 -6 -8 -6 5 3 27 11 27 2 0 13 -15 25 -32z m-1145 -138 c-3 -5 -12
-10 -18 -10 -7 0 -6 4 3 10 19 12 23 12 15 0z m-94 -41 c-12 -10 -27 -17 -31
-14 -4 3 -13 -2 -20 -10 -7 -8 -27 -17 -45 -21 -19 -3 -36 -13 -39 -21 -3 -8
-10 -12 -15 -9 -5 3 -14 -1 -21 -9 -14 -17 -30 -11 -30 11 0 9 5 12 12 8 6 -4
17 1 25 11 7 11 13 16 13 13 0 -4 12 -1 26 7 15 7 33 11 42 8 9 -4 13 -2 9 4
-4 7 11 16 38 24 25 7 45 18 45 23 0 5 3 6 8 2 4 -4 -4 -16 -17 -27z m54 21
c-3 -5 -11 -10 -16 -10 -6 0 -7 5 -4 10 3 6 11 10 16 10 6 0 7 -4 4 -10z
m-256 -109 c2 -1 -4 -10 -13 -20 -10 -11 -25 -17 -34 -14 -10 4 -13 2 -8 -5 5
-8 -1 -12 -15 -12 -12 0 -19 -3 -16 -7 4 -3 -5 -12 -19 -20 -31 -16 -44 -17
-44 -3 0 6 6 9 13 8 6 -2 11 3 9 11 -2 8 3 11 13 8 10 -4 15 -1 15 10 0 9 3
13 6 10 4 -3 16 -1 28 5 11 7 24 11 28 10 4 -1 5 5 2 12 -4 10 0 13 13 11 10
-2 20 -4 22 -4z m-150 -109 c-7 -3 -22 -12 -32 -20 -10 -9 -26 -17 -35 -18
-11 -2 -5 8 17 26 20 17 40 26 49 22 13 -5 14 -6 1 -10z m417 -30 c-17 -16
-18 -16 -5 5 7 12 15 20 18 17 3 -2 -3 -12 -13 -22z m-501 -21 c3 -5 2 -12 -3
-15 -5 -3 -9 1 -9 9 0 17 3 19 12 6z m472 -42 c-9 -6 -15 -14 -12 -20 4 -5 2
-9 -3 -9 -5 0 -12 -13 -15 -29 -3 -16 -13 -36 -22 -44 -8 -9 -15 -25 -15 -36
0 -12 -5 -21 -12 -21 -6 0 -9 -3 -5 -6 3 -4 -1 -13 -9 -21 -8 -8 -12 -18 -9
-22 2 -5 -4 -16 -15 -26 -22 -20 -28 -41 -8 -29 6 4 -1 -9 -16 -29 -16 -20
-25 -37 -22 -37 4 0 0 -10 -9 -23 -8 -13 -12 -27 -8 -30 3 -4 1 -7 -5 -7 -7 0
-11 -3 -11 -7 3 -21 -2 -33 -12 -27 -7 4 -10 1 -7 -7 3 -8 -2 -23 -11 -33 -9
-11 -11 -16 -4 -13 8 5 8 1 0 -18 -7 -14 -15 -25 -19 -25 -5 0 -8 -12 -8 -26
0 -15 -4 -23 -11 -18 -7 4 -9 -2 -7 -17 2 -15 -2 -23 -9 -22 -7 2 -10 -6 -8
-17 2 -11 -1 -22 -6 -25 -5 -4 -7 -11 -4 -16 4 -5 1 -9 -4 -9 -6 0 -11 -7 -11
-15 0 -9 -7 -26 -15 -39 -9 -13 -15 -28 -14 -32 2 -16 -13 -54 -23 -54 -5 0
-6 -4 -3 -10 3 -5 3 -16 -2 -22 -8 -15 -13 -33 -16 -65 -2 -12 -6 -26 -11 -30
-10 -10 -5 68 5 82 4 6 10 22 12 35 2 14 7 33 10 43 4 9 10 25 14 35 3 9 5 21
4 26 -1 4 4 15 11 23 7 9 11 27 10 41 -3 15 0 22 7 18 6 -4 12 -2 12 3 2 14 6
30 9 34 1 1 3 11 5 21 2 10 7 22 12 25 4 3 10 15 11 26 2 10 10 28 17 38 7 11
11 26 8 35 -4 10 -2 13 5 8 7 -4 12 -2 12 6 0 16 62 141 75 150 6 4 6 8 2 8
-5 0 0 13 9 29 10 17 22 27 28 24 6 -4 5 1 -3 10 -8 10 -9 17 -3 17 10 0 25
31 27 55 0 6 7 9 14 7 7 -1 10 2 7 7 -4 5 -2 12 4 16 5 3 10 15 10 26 0 10 5
18 11 17 6 -2 13 5 14 15 2 10 11 30 21 45 10 15 17 32 16 37 -2 6 3 4 10 -3
11 -11 10 -15 -5 -23z"/>
<path d="M3895 3330 c2 -4 -13 -8 -33 -9 -45 -2 -64 -5 -77 -12 -5 -4 -30 -7
-53 -8 -24 0 -47 -3 -52 -6 -4 -3 -25 -7 -46 -11 -22 -3 -44 -10 -49 -14 -15
-12 -42 -7 -66 13 -20 18 -34 23 -26 10 3 -5 -5 -8 -18 -8 -13 0 -21 4 -17 9
3 6 -3 6 -14 2 -10 -5 -27 -11 -36 -13 -10 -3 -18 -10 -18 -15 0 -6 -7 -8 -15
-4 -10 3 -15 -1 -15 -11 0 -9 -3 -14 -6 -10 -8 8 -34 -18 -34 -33 0 -6 -4 -9
-9 -6 -5 4 -11 1 -13 -4 -2 -6 -13 -12 -26 -13 -12 0 -22 -5 -22 -9 0 -4 -14
-8 -31 -8 -17 0 -28 -4 -24 -10 3 -5 -3 -11 -14 -11 -12 -1 -27 -2 -33 -3 -7
-1 -15 -3 -18 -6 -12 -12 -51 -30 -65 -30 -8 0 -15 -4 -15 -10 0 -5 -9 -10
-20 -10 -11 0 -20 -5 -20 -11 0 -5 -4 -8 -9 -4 -5 3 -12 1 -16 -5 -4 -6 -11
-8 -16 -5 -5 4 -9 2 -9 -3 0 -5 -7 -9 -15 -9 -19 0 -85 -35 -85 -46 0 -4 -4
-5 -10 -2 -5 3 -10 1 -10 -5 0 -6 -4 -8 -10 -5 -5 3 -10 1 -10 -5 0 -6 -4 -9
-9 -5 -6 3 -14 -2 -19 -10 -4 -9 -18 -17 -30 -18 -12 0 -19 -3 -17 -5 6 -6
-21 -32 -33 -32 -5 0 -28 -18 -50 -39 -22 -22 -43 -37 -46 -34 -3 4 -6 -1 -6
-11 0 -9 -4 -14 -10 -11 -5 3 -10 1 -10 -5 0 -5 -13 -24 -30 -41 -16 -17 -35
-44 -42 -60 -7 -16 -16 -29 -19 -29 -7 0 -22 -56 -22 -82 0 -10 -4 -18 -8 -18
-5 0 -8 -3 -8 -7 1 -5 1 -10 -1 -13 -5 -15 -4 -80 2 -80 4 0 5 -12 2 -26 -3
-15 -1 -23 5 -19 6 3 9 -4 8 -17 -1 -21 37 -117 45 -110 2 2 15 -1 30 -7 30
-11 57 -6 59 13 3 25 -4 51 -15 58 -6 4 -8 8 -3 8 4 0 0 16 -8 36 -28 68 -14
190 27 233 10 11 18 25 18 31 0 15 26 41 34 33 3 -4 6 1 6 10 0 8 9 19 21 22
11 4 18 9 15 13 -3 3 12 16 34 29 22 13 40 28 40 34 0 5 9 9 21 9 11 0 17 5
14 10 -3 6 4 10 17 10 13 0 30 9 38 19 7 11 17 18 21 15 4 -2 13 1 21 8 7 7
20 14 28 16 8 2 24 11 34 20 15 13 18 14 12 2 -7 -13 -6 -13 6 0 7 8 22 17 33
18 11 2 23 9 26 14 4 6 12 7 18 4 6 -4 14 -1 17 7 3 8 13 14 22 12 9 -1 19 1
22 5 3 5 14 10 25 12 15 2 19 -2 17 -17 -2 -11 -10 -23 -18 -28 -7 -4 -11 -15
-7 -25 3 -9 3 -14 -2 -10 -9 8 -35 -36 -35 -59 0 -8 -4 -11 -10 -8 -5 3 -10
-3 -10 -15 0 -12 -4 -18 -10 -15 -6 4 -10 -5 -10 -20 0 -15 -4 -24 -10 -20 -5
3 -10 -3 -10 -14 0 -12 -4 -21 -9 -21 -5 0 -12 -11 -15 -25 -4 -14 -11 -25
-17 -25 -6 0 -7 -4 -4 -10 3 -5 1 -10 -4 -10 -6 0 -11 -9 -11 -21 0 -13 -4
-18 -12 -13 -6 4 -8 3 -5 -3 4 -6 -2 -22 -13 -36 -11 -14 -20 -32 -20 -40 0
-8 -6 -20 -14 -26 -8 -7 -13 -21 -11 -32 2 -11 0 -17 -6 -14 -5 4 -9 -3 -9
-15 0 -12 -4 -18 -10 -15 -6 4 -10 3 -9 -2 4 -24 -2 -53 -11 -48 -9 5 -15 -15
-11 -37 0 -5 -4 -8 -9 -8 -6 0 -10 -7 -10 -15 0 -8 -9 -29 -20 -47 -11 -18
-20 -41 -20 -51 0 -10 -5 -15 -10 -12 -6 4 -10 3 -9 -2 5 -27 -2 -53 -13 -47
-8 5 -9 2 -5 -9 3 -9 2 -19 -4 -22 -5 -4 -7 -10 -4 -15 3 -5 1 -11 -5 -15 -5
-3 -10 -15 -10 -26 0 -11 -4 -18 -9 -14 -6 3 -8 -4 -6 -15 2 -11 -2 -20 -8
-20 -7 0 -6 -4 3 -10 10 -6 11 -10 3 -10 -7 0 -13 -9 -13 -20 0 -11 -4 -20 -8
-20 -5 0 -9 -6 -9 -12 -1 -17 -10 -55 -22 -95 -5 -18 -7 -33 -4 -33 3 0 1 -6
-4 -12 -6 -7 -11 -20 -11 -28 -4 -65 -6 -79 -12 -75 -4 2 -8 -52 -9 -121 -2
-87 1 -124 8 -119 7 3 11 -3 11 -16 0 -19 32 -58 49 -60 3 0 14 -2 24 -4 10
-2 27 5 38 16 21 21 25 39 9 39 -6 0 -10 6 -8 13 1 6 -2 22 -6 35 -5 15 -3 29
6 39 9 12 10 15 0 9 -8 -5 -11 -1 -9 13 2 11 6 23 9 26 3 3 4 19 2 35 -2 17 0
30 4 30 7 0 9 13 14 82 2 20 6 34 11 31 4 -2 7 6 7 19 0 13 6 30 13 37 10 11
9 12 -3 6 -12 -6 -13 -5 -2 6 6 7 12 23 12 36 0 13 5 23 10 23 6 0 10 8 10 18
0 10 6 24 13 31 7 9 8 12 0 7 -6 -3 -1 16 12 43 13 27 27 61 31 75 3 14 9 24
13 21 4 -2 8 2 8 9 0 22 25 76 35 76 5 0 7 3 4 8 -2 4 15 48 39 97 24 49 41
94 38 100 -4 5 -3 7 2 3 8 -8 55 76 55 99 0 7 5 13 10 13 6 0 10 7 10 16 0 9
5 12 12 8 6 -4 8 -3 5 3 -6 10 50 130 75 161 11 13 11 14 -1 7 -14 -8 27 55
43 66 5 4 5 12 2 18 -4 6 -3 11 2 11 5 0 15 14 22 30 7 17 17 30 22 30 5 0 6
5 3 10 -3 6 -1 10 5 10 6 0 8 5 5 10 -3 6 -2 10 3 10 4 0 14 16 22 35 7 19 16
32 20 30 4 -2 13 11 20 30 8 19 17 35 22 35 4 0 8 7 8 15 0 16 39 36 53 28 4
-2 7 1 7 8 0 8 5 7 17 -2 11 -10 14 -10 9 -1 -5 8 3 12 28 13 44 2 48 2 63 12
6 4 36 8 67 8 30 1 54 5 52 8 -5 7 4 7 139 11 39 1 73 7 77 14 5 8 8 7 8 -3 0
-11 3 -11 17 0 11 10 14 10 9 2 -4 -7 -3 -13 1 -13 5 0 15 6 22 13 11 10 13
10 7 0 -4 -8 -1 -13 8 -13 9 0 16 6 16 13 0 9 2 9 8 0 4 -7 39 -13 85 -15 42
-1 77 -6 77 -10 0 -5 18 -8 41 -8 22 0 38 -4 35 -8 -2 -4 4 -9 15 -9 21 -2 51
-27 43 -36 -3 -3 2 -4 11 -3 23 3 57 35 50 46 -3 6 -2 10 3 10 6 0 10 22 9 50
0 27 -4 47 -9 44 -4 -3 -8 4 -8 16 0 12 -4 18 -10 15 -5 -3 -10 1 -10 10 0 9
-4 14 -9 11 -5 -3 -11 1 -15 9 -3 9 -18 15 -38 15 -25 0 -29 3 -18 10 11 7 6
10 -20 10 -20 0 -42 6 -49 13 -11 10 -12 9 -6 -3 7 -12 6 -13 -6 -3 -17 13
-236 15 -245 2 -3 -5 -11 -9 -17 -9 -7 0 -6 4 3 10 12 7 10 9 -7 7 -12 0 -20
-4 -18 -7z m351 -43 c4 -4 16 -7 26 -7 10 0 17 -5 16 -12 -2 -7 3 -12 10 -13
14 0 41 -41 41 -60 0 -5 -8 6 -19 25 -11 19 -19 31 -20 26 0 -5 -9 -1 -19 8
-11 10 -25 15 -31 11 -6 -3 -9 -1 -8 6 2 8 -6 13 -19 14 -12 0 -24 3 -27 6 -4
3 5 5 18 5 14 -1 28 -5 32 -9z m-1156 -222 c-7 -9 -15 -13 -18 -11 -2 3 -33
-11 -68 -30 -50 -28 -64 -32 -64 -19 0 9 12 18 30 21 16 4 27 10 24 15 -3 5 6
9 20 9 14 0 28 5 31 11 4 6 13 8 21 5 8 -3 17 1 21 10 3 8 8 13 11 10 3 -3 -1
-12 -8 -21z m40 21 c0 -3 -4 -8 -10 -11 -5 -3 -10 -1 -10 4 0 6 5 11 10 11 6
0 10 -2 10 -4z m-200 -91 c0 -8 -7 -15 -15 -15 -8 0 -15 -3 -15 -8 0 -8 -76
-44 -86 -39 -3 1 -10 -6 -15 -15 -6 -10 -19 -18 -30 -18 -12 0 -17 4 -14 11 4
6 14 8 22 5 8 -3 11 -2 8 3 -8 14 34 40 56 36 12 -2 16 1 13 10 -3 7 -1 16 5
20 6 3 11 1 11 -4 0 -6 5 -11 12 -11 6 0 8 3 5 7 -7 6 21 32 36 33 4 0 7 -7 7
-15z m-190 -122 c-25 -18 -49 -6 -24 12 10 7 24 10 32 8 9 -4 8 -9 -8 -20z
m-34 -24 c4 -7 1 -10 -7 -7 -7 2 -21 -4 -30 -15 -13 -17 -16 -17 -16 -4 0 9 4
14 8 12 4 -3 9 2 13 10 6 18 22 20 32 4z m444 -23 c0 -2 -7 -7 -16 -10 -8 -3
-12 -2 -9 4 6 10 25 14 25 6z m-20 -30 c0 -3 -4 -8 -10 -11 -5 -3 -10 -1 -10
4 0 6 5 11 10 11 6 0 10 -2 10 -4z m-23 -45 c0 -11 -5 -17 -9 -15 -11 7 -10
34 1 34 6 0 9 -9 8 -19z m-17 -31 c0 -5 -4 -10 -10 -10 -5 0 -9 -3 -9 -7 4
-23 -2 -43 -11 -38 -5 3 -10 -3 -10 -14 0 -12 -4 -21 -10 -21 -16 0 -12 27 8
46 9 10 16 20 16 23 -1 3 1 12 3 19 6 14 23 16 23 2z m-57 -97 c4 -3 1 -13 -5
-21 -12 -13 -18 -32 -20 -59 -1 -7 -5 -13 -9 -13 -7 0 -22 -39 -20 -52 1 -5
-3 -8 -9 -8 -5 0 -10 -6 -10 -14 0 -8 -7 -22 -16 -30 -8 -9 -13 -16 -9 -16 3
0 -1 -13 -10 -30 -9 -16 -12 -30 -8 -30 5 0 2 -4 -5 -9 -7 -4 -14 -17 -15 -29
0 -11 -5 -18 -9 -16 -7 5 -12 -18 -9 -38 0 -5 -4 -8 -9 -8 -5 0 -10 -9 -10
-21 0 -11 -4 -17 -10 -14 -6 4 -10 -5 -10 -19 0 -14 -4 -26 -8 -26 -5 0 -9 -7
-10 -15 -1 -8 -3 -22 -4 -30 -1 -8 -5 -12 -10 -9 -4 3 -8 -6 -8 -20 0 -14 -5
-26 -12 -26 -6 0 -8 -3 -5 -7 4 -3 0 -17 -9 -31 -9 -13 -11 -22 -6 -18 6 3 4
-7 -4 -23 -8 -17 -17 -39 -19 -51 -2 -11 -7 -25 -10 -31 -4 -5 -9 -25 -12 -42
-7 -47 -13 -46 -13 1 0 23 4 42 9 42 4 0 7 15 6 34 -1 20 3 34 9 33 6 -1 10 3
9 10 -2 7 2 25 9 40 6 15 13 37 15 47 2 11 8 25 14 33 6 7 8 13 4 13 -4 0 -2
7 5 15 7 9 10 18 7 22 -4 3 0 15 8 27 8 11 15 32 15 46 0 20 2 22 10 10 8 -13
10 -12 11 5 1 11 1 23 0 28 0 4 4 7 10 7 5 0 8 4 4 9 -3 5 2 16 10 24 8 9 15
21 15 28 0 6 14 39 31 73 17 33 31 63 31 66 0 3 3 4 7 3 4 -1 8 8 8 20 1 12 7
23 13 25 5 2 8 8 4 13 -3 5 0 9 5 9 6 0 11 7 11 15 0 18 21 65 30 65 4 0 10
-3 13 -7z m-328 -802 c3 -5 1 -12 -5 -16 -5 -3 -10 1 -10 9 0 18 6 21 15 7z
m0 -41 c3 -5 1 -10 -4 -10 -6 0 -11 5 -11 10 0 6 2 10 4 10 3 0 8 -4 11 -10z"/>
<path d="M2128 3272 c-21 -15 -43 -39 -50 -54 -11 -25 -20 -31 -38 -30 -3 0
-6 -11 -7 -25 0 -14 -7 -29 -15 -34 -7 -5 -10 -9 -5 -9 4 0 -4 -22 -18 -50
-14 -27 -22 -50 -18 -50 5 0 4 -4 -2 -8 -14 -10 -35 -49 -35 -66 0 -7 -7 -26
-14 -42 -8 -15 -13 -31 -10 -36 3 -4 0 -8 -5 -8 -6 0 -11 -12 -11 -26 0 -17
-4 -23 -12 -18 -7 4 -10 3 -5 -1 4 -5 0 -19 -8 -31 -8 -13 -16 -39 -17 -58 -2
-19 -6 -32 -10 -29 -5 2 -8 -7 -8 -21 0 -14 -5 -26 -12 -26 -6 0 -8 -3 -5 -6
3 -4 1 -16 -6 -28 -6 -11 -13 -28 -14 -36 -3 -20 -11 -55 -13 -55 -2 0 -11
-38 -12 -52 -1 -7 -5 -13 -9 -13 -5 0 -6 -6 -3 -14 3 -8 1 -17 -5 -20 -6 -4
-7 -14 -4 -23 4 -9 2 -14 -3 -10 -6 3 -9 -7 -8 -24 1 -16 -2 -32 -7 -35 -5 -3
-9 -11 -9 -17 0 -7 4 -6 10 3 5 8 10 10 10 4 0 -6 -6 -17 -14 -23 -7 -6 -12
-22 -10 -36 1 -14 -3 -25 -9 -25 -7 0 -5 -5 3 -10 9 -6 10 -10 3 -10 -7 0 -12
-16 -11 -40 0 -22 4 -37 9 -34 5 3 9 -4 9 -15 0 -12 7 -21 16 -21 8 0 12 -4 9
-10 -3 -5 3 -10 15 -10 14 0 19 -4 14 -12 -4 -6 4 -3 18 8 14 10 24 22 21 27
-2 4 3 10 12 13 12 5 13 9 4 14 -8 6 -6 13 9 26 12 10 19 21 16 26 -3 4 0 8 5
8 6 0 11 9 11 21 0 11 4 18 9 15 4 -3 14 12 21 34 7 22 17 37 21 34 5 -3 9 4
9 16 0 12 5 18 10 15 6 -3 10 1 10 9 0 9 5 16 12 16 6 0 8 3 5 6 -4 4 3 15 15
25 11 11 17 19 13 19 -4 0 2 9 15 20 13 11 20 20 16 20 -4 0 12 18 36 39 23
22 47 37 51 34 5 -3 3 -9 -4 -14 -12 -7 -11 -9 0 -9 12 0 12 -3 3 -12 -7 -7
-12 -20 -12 -30 0 -10 -5 -18 -11 -18 -5 0 -8 -4 -4 -9 3 -5 0 -15 -7 -23 -7
-7 -15 -20 -17 -28 -2 -8 -4 -19 -6 -25 -4 -18 -16 -50 -26 -68 -5 -10 -7 -22
-4 -27 4 -6 1 -10 -4 -10 -6 0 -10 -3 -10 -7 1 -5 1 -10 0 -13 -2 -3 -4 -21
-7 -40 -2 -19 -7 -42 -11 -50 -10 -25 -11 -164 0 -177 5 -7 6 -13 3 -13 -4 0
-1 -7 8 -15 8 -8 19 -15 25 -15 6 0 11 -4 11 -10 0 -5 23 -10 51 -10 31 0 48
4 44 10 -3 6 2 10 12 10 14 0 15 2 4 9 -11 7 -11 9 0 13 11 4 11 8 -2 21 -9 9
-19 13 -23 10 -3 -4 -6 -1 -6 6 0 7 -5 9 -10 6 -6 -4 -10 11 -8 40 0 25 5 48
10 51 4 3 8 14 8 25 0 10 4 27 9 37 5 9 15 38 23 65 7 26 15 47 18 47 3 0 7
10 7 22 1 13 7 24 13 26 5 2 10 10 10 18 0 8 8 32 18 53 10 21 18 45 16 54 -1
10 2 17 7 17 6 0 8 4 4 9 -3 5 -1 12 4 15 12 8 11 114 -1 141 -5 11 -20 25
-33 32 -19 8 -23 8 -19 0 5 -8 2 -7 -7 1 -7 6 -17 12 -22 12 -4 0 -5 -6 -1
-12 5 -8 0 -7 -11 2 -11 9 -16 10 -11 3 5 -9 -1 -13 -19 -13 -15 0 -24 -4 -20
-10 3 -5 1 -10 -5 -10 -14 0 -95 -81 -117 -118 -10 -16 -22 -30 -28 -31 -5 0
-10 -4 -11 -8 -2 -22 -17 -42 -27 -36 -5 3 -7 1 -4 -4 4 -6 -2 -21 -13 -33
-11 -12 -17 -28 -13 -34 3 -6 2 -7 -2 -3 -13 11 -15 40 -5 52 5 6 10 25 12 42
1 18 6 29 10 27 4 -3 8 9 8 26 0 17 4 29 8 26 4 -2 9 7 10 22 2 30 38 65 56
55 6 -3 8 -3 5 1 -4 4 22 36 58 71 35 36 61 65 57 65 -4 0 3 8 14 19 12 10 22
24 22 30 0 7 5 9 12 5 6 -4 8 -3 4 4 -3 6 1 17 9 26 22 22 76 126 70 136 -3 4
2 10 10 14 8 3 15 14 15 24 0 10 7 27 15 38 17 23 19 38 4 28 -6 -3 -4 4 4 17
8 13 14 34 12 47 -1 12 1 22 4 22 3 0 6 16 6 35 0 19 -3 35 -8 35 -4 0 -6 4
-2 9 3 6 -5 20 -17 32 -13 12 -17 19 -10 15 23 -13 12 2 -14 19 -18 11 -24 13
-19 4 6 -11 5 -12 -6 -1 -22 20 -71 13 -111 -16z m102 -153 c-5 -9 -6 -19 -3
-23 3 -3 1 -6 -5 -6 -7 0 -12 -9 -12 -19 0 -11 -6 -26 -13 -33 -8 -7 -12 -19
-9 -26 2 -6 -1 -12 -7 -12 -6 0 -11 -11 -11 -25 0 -14 -4 -25 -10 -25 -5 0
-10 -8 -10 -17 0 -10 -9 -29 -20 -43 -11 -14 -20 -31 -20 -37 0 -7 -4 -13 -10
-13 -5 0 -10 -6 -10 -14 0 -8 -8 -21 -19 -28 -10 -7 -19 -17 -21 -23 -4 -18
-30 -50 -30 -37 0 17 4 27 10 25 3 -1 7 6 8 15 4 46 9 63 20 74 7 7 12 20 12
31 0 11 4 15 12 11 8 -5 9 -2 5 9 -4 10 -1 17 5 17 6 0 9 3 5 6 -3 3 3 23 14
42 10 20 19 43 19 50 0 7 5 10 10 7 6 -3 10 2 10 13 0 10 8 27 18 38 10 10 18
23 19 28 0 4 8 19 18 33 13 17 21 20 26 11 4 -6 4 -19 -1 -29z m-200 -89 c0
-11 -4 -20 -9 -20 -5 0 -7 9 -4 20 3 11 7 20 9 20 2 0 4 -9 4 -20z m-13 -45
c0 -8 -4 -15 -9 -15 -4 0 -8 7 -8 15 0 8 4 15 8 15 5 0 9 -7 9 -15z m-33 -71
c-9 -22 -16 -43 -15 -47 1 -5 -4 -5 -10 -1 -7 4 -9 0 -5 -13 7 -21 -18 -52
-31 -39 -3 3 -1 6 6 6 7 0 10 4 7 8 -3 5 3 25 14 44 10 20 16 39 12 44 -4 4
-1 3 7 -1 11 -6 13 -4 8 8 -3 9 -2 19 4 22 5 4 6 12 3 18 -5 9 -4 9 5 1 10 -9
9 -20 -5 -50z m-46 -139 c-3 -3 -9 2 -12 12 -6 14 -5 15 5 6 7 -7 10 -15 7
-18z m287 -305 c1 -17 -4 -35 -12 -41 -7 -6 -10 -16 -7 -21 4 -6 1 -14 -5 -18
-7 -4 -14 -15 -15 -25 -2 -11 -8 -20 -15 -21 -6 -1 -7 0 -2 2 6 3 8 11 5 19
-3 7 -1 16 5 20 6 3 11 15 11 26 0 10 5 19 10 19 6 0 10 19 10 42 0 46 13 45
15 -2z m-345 -140 c0 -5 -2 -10 -4 -10 -3 0 -8 5 -11 10 -3 6 -1 10 4 10 6 0
11 -4 11 -10z"/>
<path d="M3389 2834 c-16 -23 -29 -54 -29 -69 0 -15 -4 -24 -10 -20 -6 4 -10
-8 -10 -30 0 -36 18 -65 40 -65 6 0 8 -4 5 -10 -12 -20 41 -9 55 11 8 12 21
27 28 35 7 7 12 15 12 16 -2 6 14 44 24 55 6 7 18 20 26 30 21 24 23 61 6 79
-11 10 -32 14 -67 13 -47 -2 -52 -5 -80 -45z m48 0 c-3 -3 -12 -4 -19 -1 -8 3
-5 6 6 6 11 1 17 -2 13 -5z m-19 -28 c-7 -8 -15 -12 -17 -11 -5 6 10 25 20 25
5 0 4 -6 -3 -14z"/>
<path d="M3750 2809 c0 -6 -9 -9 -20 -6 -10 3 -24 -1 -31 -9 -6 -8 -15 -11
-20 -8 -5 3 -8 2 -7 -3 2 -5 -10 -22 -25 -38 -15 -17 -30 -40 -33 -52 -4 -13
-10 -20 -15 -17 -5 3 -9 -4 -9 -15 0 -12 -4 -21 -10 -21 -5 0 -10 -6 -10 -14
0 -22 -26 -66 -34 -58 -4 4 -7 2 -6 -3 5 -25 -1 -56 -10 -50 -6 4 -10 3 -9 -2
4 -22 -2 -44 -10 -38 -6 3 -8 -4 -6 -16 3 -13 -3 -28 -13 -36 -10 -9 -11 -11
-2 -7 12 7 13 5 3 -8 -7 -8 -10 -18 -6 -21 3 -4 1 -7 -6 -7 -7 0 -9 -4 -6 -10
3 -5 3 -10 -2 -10 -4 0 -9 -10 -10 -23 -3 -31 -8 -50 -14 -62 -4 -5 -5 -18 -4
-27 2 -10 0 -18 -4 -18 -8 0 -11 -28 -12 -110 0 -74 2 -90 12 -90 4 0 11 -9
14 -20 4 -11 11 -18 16 -15 5 4 9 2 9 -3 0 -7 39 -9 48 -2 1 2 8 3 15 4 6 0
13 11 15 24 2 12 7 22 11 22 3 0 8 12 9 27 1 15 7 32 12 37 6 6 10 20 10 33 0
13 4 23 8 23 4 0 14 20 21 45 7 25 17 45 23 45 5 0 6 5 3 10 -3 6 -2 10 4 10
6 0 8 7 5 15 -4 8 -1 15 5 15 6 0 11 7 11 15 0 16 49 98 63 103 4 2 5 7 2 12
-2 4 4 18 15 31 12 12 23 34 27 47 4 18 8 20 14 10 6 -9 9 -7 9 10 0 13 4 20
10 17 6 -3 10 1 10 9 0 9 5 16 10 16 6 0 10 7 10 16 0 8 4 13 9 10 5 -4 11 -3
14 1 2 5 2 2 0 -5 -1 -8 -3 -20 -3 -28 0 -9 -4 -12 -10 -9 -5 3 -10 -1 -10 -9
0 -9 -9 -31 -20 -51 -11 -20 -20 -42 -20 -51 0 -8 -4 -13 -8 -10 -5 3 -15 -17
-22 -44 -8 -28 -18 -46 -23 -43 -6 4 -8 0 -4 -10 3 -9 0 -22 -7 -29 -14 -15
-16 -20 -16 -49 0 -11 -4 -17 -10 -14 -5 3 -7 0 -4 -9 3 -8 1 -24 -6 -35 -8
-16 -8 -21 2 -21 6 0 3 -7 -8 -16 -10 -8 -12 -12 -4 -8 11 5 12 4 4 -5 -20
-21 17 -101 45 -101 6 0 11 -4 11 -8 0 -10 30 -9 48 2 6 4 12 4 13 -1 0 -4 5
3 11 17 6 14 10 28 10 32 -1 4 5 29 14 55 9 27 17 53 18 60 1 7 5 16 9 19 4 4
7 16 7 26 0 10 4 18 9 18 9 0 26 48 23 63 -1 4 2 7 6 7 8 0 29 36 30 53 0 5
12 19 27 32 14 14 25 26 26 27 0 17 13 47 18 43 4 -2 14 11 21 30 7 19 17 32
22 29 4 -3 8 2 8 11 0 9 11 27 25 41 14 14 23 29 21 33 -3 4 4 7 14 8 13 1 18
-5 17 -18 -1 -10 -5 -19 -9 -19 -4 0 -8 -9 -8 -20 0 -11 -5 -20 -11 -20 -5 0
-8 -4 -4 -9 3 -5 -2 -16 -11 -25 -8 -9 -13 -20 -10 -25 4 -5 -1 -17 -10 -25
-10 -11 -11 -16 -3 -16 8 0 7 -5 -3 -17 -9 -10 -13 -23 -11 -30 2 -6 -1 -14
-6 -18 -6 -3 -11 -17 -11 -31 0 -13 -6 -24 -12 -24 -10 0 -9 -3 1 -9 8 -5 9
-10 2 -12 -5 -2 -11 -19 -13 -37 -1 -19 -6 -36 -10 -38 -4 -3 -8 -11 -8 -17 0
-7 4 -6 10 3 6 9 10 10 10 3 0 -6 -5 -15 -10 -18 -13 -8 -11 -135 1 -135 5 0
9 -7 9 -16 0 -8 7 -22 15 -30 9 -10 15 -11 15 -4 0 7 6 6 15 -3 8 -9 24 -13
35 -10 18 5 22 10 19 29 0 4 5 11 13 15 11 7 11 10 0 17 -13 9 -13 17 3 122 2
14 4 25 5 25 3 0 12 41 14 62 0 11 4 19 9 16 4 -2 8 1 8 6 1 6 3 16 4 21 1 6
3 15 4 21 0 5 5 8 10 5 5 -4 7 3 4 14 -3 13 0 20 8 20 11 0 11 2 -1 10 -13 8
-12 10 3 10 10 0 16 4 13 8 -3 5 6 30 19 57 12 27 20 55 17 63 -3 9 -1 13 5 9
5 -3 10 -1 11 6 1 23 11 92 12 92 1 0 3 8 5 18 2 9 -1 17 -7 17 -6 0 -4 7 3
17 8 9 9 14 4 11 -6 -4 -16 5 -23 20 -9 22 -18 27 -47 27 -19 0 -35 -3 -35 -7
0 -5 -6 -8 -13 -8 -7 0 -23 -9 -35 -20 -12 -11 -27 -20 -33 -20 -7 0 -10 -3
-6 -6 3 -4 -11 -23 -32 -43 -20 -20 -40 -44 -44 -53 -3 -10 -12 -18 -19 -17
-7 0 -8 3 -3 5 15 6 4 84 -16 111 -21 30 -65 36 -108 15 -45 -21 -114 -90
-105 -104 4 -7 2 -8 -4 -4 -7 4 -12 4 -12 -1 0 -4 -9 -19 -21 -33 -11 -14 -31
-43 -44 -65 -15 -25 -24 -33 -25 -22 0 9 5 17 10 17 6 0 9 3 9 8 -4 18 24 71
34 65 6 -3 7 -1 3 6 -4 6 2 23 13 37 11 15 19 30 16 34 -3 4 2 10 10 14 8 3
15 10 15 16 0 6 11 23 24 37 24 25 24 43 3 70 -5 7 -13 11 -17 8 -5 -3 -11 -1
-15 5 -8 13 -25 13 -25 -1z m-100 -143 c0 -2 -8 -10 -17 -17 -16 -13 -17 -12
-4 4 13 16 21 21 21 13z m607 -38 c2 -12 1 -19 -2 -16 -3 3 -8 16 -10 28 -2
12 -1 20 2 16 4 -4 8 -16 10 -28z m-627 -8 c0 -5 -4 -10 -10 -10 -5 0 -10 -6
-10 -14 0 -7 -6 -19 -14 -26 -8 -6 -13 -17 -10 -25 3 -7 1 -16 -5 -20 -6 -3
-11 -15 -11 -25 0 -10 -4 -20 -10 -22 -5 -1 -11 -15 -12 -30 -1 -15 -6 -24
-10 -22 -4 3 -8 -6 -8 -20 0 -14 -4 -27 -8 -30 -14 -8 -7 35 12 79 10 22 18
48 19 57 1 9 5 14 9 12 4 -3 8 6 8 20 0 14 5 26 10 26 6 0 10 7 10 15 0 17 20
44 33 45 4 0 7 -4 7 -10z m613 -51 c-8 -31 -20 -22 -15 12 3 19 7 26 12 19 4
-7 5 -21 3 -31z m-23 -49 c-5 -9 -7 -20 -5 -24 3 -3 2 -3 -2 0 -14 10 -10 52
4 47 9 -4 10 -10 3 -23z m-366 -54 c-3 -9 -10 -16 -15 -16 -6 0 -5 9 1 21 13
24 24 20 14 -5z m350 15 c3 -5 -1 -14 -8 -20 -12 -10 -13 -8 -9 8 6 23 9 25
17 12z m-367 -60 c1 -11 -5 -22 -13 -25 -7 -3 -11 -12 -8 -20 3 -8 2 -16 -3
-19 -5 -3 -10 5 -11 18 -1 13 5 26 13 29 8 3 12 12 9 21 -3 8 -2 15 3 15 5 0
9 -9 10 -19z m-327 -77 c0 -8 -4 -14 -9 -14 -6 0 -9 9 -8 19 1 22 17 18 17 -5z
m290 -19 c0 -8 -4 -17 -10 -20 -6 -4 -10 5 -10 20 0 15 4 24 10 20 6 -3 10
-12 10 -20z m-20 -39 c0 -3 -4 -8 -10 -11 -5 -3 -10 -1 -10 4 0 6 5 11 10 11
6 0 10 -2 10 -4z"/>
<path d="M1586 2774 c-3 -8 -12 -14 -20 -14 -9 0 -29 -13 -45 -29 -16 -16 -32
-26 -35 -23 -3 3 -6 -5 -6 -17 0 -12 -4 -19 -10 -16 -5 3 -10 1 -10 -5 0 -6
-5 -8 -10 -5 -6 4 -10 3 -9 -2 3 -20 -2 -34 -11 -28 -5 3 -10 -1 -10 -9 0 -9
-4 -16 -10 -16 -5 0 -10 -5 -10 -11 0 -6 -14 -31 -32 -56 -17 -25 -26 -43 -19
-38 9 5 9 1 -1 -14 -7 -12 -16 -21 -20 -21 -5 0 -8 -9 -8 -19 0 -11 -5 -23
-10 -26 -6 -4 -8 -10 -5 -15 3 -5 1 -11 -5 -15 -6 -4 -8 -11 -5 -16 4 -5 1 -9
-5 -9 -6 0 -10 -6 -9 -12 1 -7 -1 -20 -4 -28 -4 -8 -8 -24 -10 -35 -1 -11 -6
-25 -10 -31 -6 -10 -12 -163 -8 -202 0 -7 6 -10 13 -6 7 4 8 3 4 -4 -8 -14 22
-75 33 -67 5 3 11 -2 15 -10 3 -8 12 -15 21 -15 8 0 15 -4 15 -8 0 -11 81 -9
99 2 11 7 12 6 6 -5 -8 -12 -6 -12 8 -1 9 8 21 11 27 7 5 -3 10 -2 10 3 0 6
11 13 25 16 14 4 23 11 20 16 -3 6 -1 10 5 10 13 0 100 84 100 96 0 5 9 16 20
24 14 10 16 16 7 22 -9 6 -9 8 1 8 7 0 12 13 12 29 0 24 -4 29 -20 28 -11 -1
-20 -5 -20 -11 0 -14 -132 -136 -165 -151 -16 -8 -42 -16 -56 -19 -27 -4 -27
-4 -26 60 0 35 4 64 9 64 4 0 8 13 8 28 0 15 6 34 13 41 10 11 9 12 -3 6 -12
-7 -13 -6 -3 7 7 8 14 27 15 41 1 14 6 23 10 21 7 -5 12 18 9 39 0 4 3 7 9 7
5 0 10 9 10 20 0 11 5 20 10 20 5 0 9 3 9 8 -4 22 2 42 11 37 6 -3 10 0 10 7
0 20 24 68 33 68 5 0 5 5 2 10 -3 6 -1 10 4 10 6 0 11 7 11 15 0 9 7 18 15 21
8 4 12 10 9 15 -3 5 2 9 11 9 9 0 14 4 11 8 -5 8 36 62 48 62 3 0 6 -13 6 -30
0 -16 -5 -30 -10 -30 -6 0 -5 -8 2 -20 25 -40 88 -9 88 42 0 10 5 18 11 18 8
0 8 5 -1 15 -8 10 -9 15 -2 15 13 0 -5 59 -25 78 -7 7 -16 20 -21 28 -12 21
-118 28 -126 8z m-105 -163 c-8 -5 -10 -14 -6 -21 5 -9 4 -11 -3 -6 -8 5 -12
-1 -12 -16 0 -17 -2 -20 -9 -9 -10 16 14 61 33 61 6 0 5 -4 -3 -9z m-44 -71
c-1 -10 -5 -16 -9 -14 -4 3 -8 -4 -8 -15 0 -11 -4 -23 -10 -26 -5 -3 -10 -15
-10 -25 0 -10 -4 -22 -10 -25 -6 -4 -10 7 -10 24 0 21 5 31 15 31 9 0 12 6 9
15 -3 8 1 22 10 31 9 8 13 20 10 26 -4 6 -2 8 4 4 6 -3 10 -15 9 -26z m-71
-142 c-13 -8 -15 -13 -5 -24 9 -11 9 -14 0 -14 -7 0 -9 -5 -6 -10 3 -6 0 -13
-8 -16 -9 -3 -13 -15 -10 -32 3 -23 2 -24 -6 -7 -15 31 -13 45 7 45 12 0 13 3
5 8 -10 6 -9 14 2 36 8 16 15 38 16 50 0 20 1 20 12 -2 9 -20 8 -26 -7 -34z
m-49 -160 c-3 -8 -6 -5 -6 6 -1 11 2 17 5 13 3 -3 4 -12 1 -19z"/>
<path d="M1059 2721 c-2 -6 -17 -13 -34 -15 -46 -6 -75 -17 -69 -27 3 -5 -1
-9 -9 -9 -7 0 -22 -8 -33 -18 -10 -10 -27 -21 -36 -25 -10 -3 -18 -14 -18 -22
0 -9 -4 -14 -8 -11 -5 3 -15 -6 -22 -19 -7 -14 -17 -25 -22 -25 -4 0 -8 -7 -8
-15 0 -8 -5 -15 -11 -15 -5 0 -8 -4 -5 -9 3 -5 -1 -14 -9 -21 -8 -7 -12 -16
-9 -21 3 -5 0 -9 -5 -9 -6 0 -11 -9 -11 -20 0 -11 -3 -20 -8 -20 -4 0 -13 -24
-20 -53 -15 -64 -16 -201 -2 -192 6 4 10 -5 10 -19 0 -14 5 -26 10 -26 6 0 10
-5 10 -11 0 -15 62 -69 81 -69 8 0 19 -3 23 -7 10 -10 148 -12 161 -2 6 4 19
9 30 11 11 1 29 11 39 21 11 9 26 17 33 17 8 0 11 5 8 10 -3 6 -1 10 5 10 13
0 40 25 40 37 0 4 9 19 20 33 11 14 20 35 20 48 0 12 4 22 8 22 4 0 8 20 8 43
1 40 -1 44 -24 43 -19 -1 -28 -10 -40 -41 -9 -22 -19 -41 -24 -43 -4 -2 -8
-12 -8 -23 0 -10 -4 -19 -10 -19 -5 0 -10 -5 -10 -11 0 -7 -12 -24 -27 -38
-38 -36 -99 -78 -88 -61 6 10 4 11 -6 4 -19 -11 -62 -17 -56 -7 3 4 -6 9 -19
9 -20 2 -67 34 -48 34 3 0 2 6 -2 13 -11 14 -11 37 -1 54 4 6 2 15 -4 19 -8 5
-9 3 -4 -6 5 -9 4 -11 -4 -6 -8 5 -7 13 3 28 8 11 12 27 9 36 -4 9 -2 13 4 9
6 -4 11 -1 10 6 -1 31 4 44 18 46 8 1 24 2 34 3 11 1 17 6 15 10 -5 7 27 13
49 9 5 -1 6 3 2 9 -3 5 1 10 9 10 9 0 16 5 16 10 0 6 3 9 8 9 19 -3 33 2 27
11 -3 6 3 10 15 10 12 0 18 5 15 10 -3 6 -1 10 5 10 14 0 40 25 40 38 0 5 9
17 20 27 11 10 20 26 20 36 0 10 5 21 10 24 6 3 10 24 10 46 0 21 -4 39 -10
39 -5 0 -10 7 -10 15 0 8 -12 22 -27 32 -16 10 -31 22 -35 28 -5 6 -8 4 -8 -5
0 -13 -1 -13 -10 0 -9 13 -10 13 -10 0 0 -12 -2 -13 -9 -1 -6 9 -10 9 -12 2z
m41 -42 c0 -8 -38 -14 -62 -10 -5 0 -8 -3 -8 -9 0 -5 -9 -10 -21 -10 -11 0
-17 -4 -14 -10 3 -5 -3 -10 -14 -10 -33 0 -24 16 21 37 44 21 98 28 98 12z
m-135 -59 c3 -5 0 -10 -9 -10 -8 0 -16 -6 -19 -12 -2 -7 -8 -10 -12 -6 -8 8
12 38 26 38 4 0 11 -4 14 -10z m-45 -43 c0 -5 -4 -5 -10 -2 -5 3 -10 1 -10 -5
0 -15 -26 -41 -33 -33 -3 3 3 14 14 26 10 11 19 28 19 36 0 14 1 14 10 1 5 -8
10 -19 10 -23z m170 -25 c-1 -22 -24 -52 -39 -52 -7 0 -9 -4 -6 -10 3 -5 -1
-10 -9 -10 -9 0 -16 -4 -16 -8 0 -12 -81 -51 -102 -50 -9 1 -15 5 -12 10 3 5
10 5 16 2 7 -5 9 -1 5 9 -3 10 -2 17 3 17 6 0 10 7 10 16 0 8 5 12 10 9 6 -3
10 4 10 16 0 12 3 20 6 17 3 -4 19 8 35 24 16 17 29 28 29 25 0 -4 10 -3 23 2
27 10 37 6 37 -17z m-230 -38 c0 -8 -4 -12 -10 -9 -5 3 -10 10 -10 16 0 5 5 9
10 9 6 0 10 -7 10 -16z m-32 -43 c-8 -12 -17 -18 -21 -15 -5 6 25 43 32 38 1
-1 -3 -12 -11 -23z"/>
<path d="M4581 2723 c-1 -7 -8 -13 -16 -13 -8 0 -15 -6 -15 -12 0 -9 -4 -8
-10 2 -5 8 -10 10 -10 4 0 -7 -8 -14 -17 -18 -39 -12 -84 -44 -71 -49 7 -3 2
-6 -11 -6 -13 -1 -22 -4 -18 -7 7 -8 -17 -34 -32 -34 -6 0 -11 -7 -11 -15 0
-9 -7 -18 -15 -21 -8 -4 -13 -10 -10 -14 2 -4 -5 -18 -16 -31 -11 -13 -23 -36
-26 -52 -3 -15 -10 -30 -14 -33 -5 -3 -9 -17 -9 -32 0 -21 -2 -24 -10 -12 -7
11 -10 0 -10 -37 0 -29 -3 -53 -7 -53 -5 0 -8 -13 -8 -29 0 -16 3 -27 8 -24
12 7 8 -12 -5 -26 -10 -11 -10 -13 0 -7 8 5 12 -2 12 -23 0 -17 5 -31 12 -31
6 0 8 -3 5 -7 -4 -3 11 -23 32 -44 22 -20 37 -40 34 -43 -3 -3 4 -4 16 -1 11
2 21 -1 21 -6 0 -6 4 -8 9 -4 5 3 12 1 15 -3 10 -16 148 -7 183 11 18 9 39 17
48 17 9 0 14 3 12 8 -5 7 11 26 25 30 19 6 54 51 52 67 -1 9 0 14 4 11 11 -12
32 56 32 105 0 42 -3 49 -20 49 -11 0 -20 -7 -20 -15 0 -8 -4 -15 -10 -15 -5
0 -10 -9 -10 -20 0 -11 -5 -20 -11 -20 -5 0 -8 -4 -4 -9 3 -5 0 -15 -7 -23 -7
-7 -14 -20 -16 -28 -2 -7 -12 -21 -22 -30 -11 -10 -17 -20 -13 -24 3 -3 -1 -6
-11 -6 -9 0 -14 -4 -11 -10 3 -5 0 -10 -8 -10 -7 0 -23 -9 -35 -20 -14 -13
-22 -16 -22 -8 0 8 -3 9 -8 3 -10 -14 -59 -18 -67 -6 -3 6 -14 11 -24 11 -24
0 -43 38 -43 91 0 24 1 49 2 54 1 6 2 13 1 18 0 4 3 7 8 7 6 0 8 9 6 20 -2 11
1 20 6 20 6 0 7 5 4 10 -4 6 6 10 24 10 16 0 33 5 36 10 3 6 15 10 26 10 10 0
19 5 19 11 0 5 4 8 9 4 5 -3 16 2 24 10 9 8 21 15 27 15 6 0 8 5 5 10 -3 6 1
10 9 10 14 0 96 73 96 85 0 3 0 12 0 21 0 8 4 13 9 10 9 -6 27 60 22 79 -2 6
-5 19 -7 30 -2 11 -8 21 -14 23 -6 2 -8 8 -4 13 3 5 -2 9 -11 9 -10 0 -13 5
-9 12 5 7 2 9 -9 5 -8 -3 -18 0 -20 7 -5 13 -34 15 -54 3 -6 -4 -14 -1 -16 5
-4 10 -6 10 -6 1z m69 -45 c0 -4 -13 -8 -29 -8 -17 0 -33 -4 -36 -10 -3 -5
-15 -10 -26 -10 -10 0 -19 -4 -19 -10 0 -5 -5 -10 -11 -10 -7 0 -20 -10 -30
-21 -13 -15 -24 -19 -36 -14 -17 8 -17 8 0 12 9 3 14 9 11 15 -4 7 -2 8 5 4 6
-4 14 0 17 8 3 9 12 16 20 16 8 0 14 4 14 8 0 13 52 30 88 29 17 -1 32 -5 32
-9z m-187 -95 c3 -5 -5 -16 -17 -25 -18 -13 -23 -14 -23 -2 0 8 7 14 16 14 14
0 14 2 1 10 -13 8 -13 10 2 10 9 0 19 -3 21 -7z m167 -31 c0 -20 -38 -66 -62
-75 -10 -3 -18 -11 -18 -17 0 -6 -4 -8 -10 -5 -5 3 -10 2 -10 -3 0 -9 -22 -19
-63 -28 -15 -3 -16 -1 -5 19 7 12 16 24 19 27 3 3 11 15 18 28 7 12 16 20 22
17 5 -4 9 4 9 16 0 12 3 19 7 16 3 -4 13 -1 22 7 17 15 51 25 64 19 4 -2 7
-12 7 -21z m-223 -24 c-3 -8 -6 -5 -6 6 -1 11 2 17 5 13 3 -3 4 -12 1 -19z
m-23 -43 c-9 -14 -19 -24 -21 -21 -7 7 16 46 28 46 5 0 2 -11 -7 -25z"/>
<path d="M3305 2620 c3 -5 -1 -10 -9 -10 -9 0 -16 -7 -16 -16 0 -8 -4 -13 -9
-10 -5 3 -9 0 -8 -7 1 -41 -4 -67 -13 -62 -6 3 -10 -5 -10 -19 0 -14 -5 -28
-10 -31 -6 -4 -8 -10 -5 -15 3 -5 0 -12 -6 -15 -5 -4 -8 -13 -5 -21 3 -8 0
-14 -6 -14 -6 0 -8 -3 -5 -6 3 -4 2 -14 -3 -24 -5 -9 -12 -29 -15 -43 -3 -15
-8 -39 -11 -54 -4 -16 -6 -36 -6 -46 0 -9 -3 -15 -7 -13 -4 3 -8 -1 -8 -9 0
-8 5 -15 11 -15 7 0 7 -3 1 -8 -15 -11 -17 -32 -3 -32 9 0 8 -4 -2 -10 -10 -6
-11 -10 -2 -10 6 0 12 -7 12 -15 0 -25 23 -65 37 -65 7 0 13 -4 13 -9 0 -18
87 1 102 22 9 14 -2 38 -14 31 -5 -4 -8 19 -7 55 1 34 5 61 8 61 4 0 8 12 9
26 1 15 7 33 13 40 6 8 8 14 4 14 -4 0 0 12 10 26 9 15 12 23 6 19 -6 -3 -2
10 9 30 11 19 20 45 20 56 0 11 4 18 8 15 4 -2 8 3 9 12 2 30 8 47 18 54 6 5
5 8 -2 8 -7 0 -10 6 -7 14 9 24 -31 86 -55 86 -6 0 -11 5 -11 10 0 6 -9 10
-21 10 -11 0 -17 -4 -14 -10z m-28 -145 c0 -8 -4 -12 -9 -9 -5 3 -6 10 -3 15
9 13 12 11 12 -6z m-17 -55 c0 -10 -3 -21 -7 -23 -5 -3 -8 8 -8 23 0 15 3 26
8 23 4 -2 7 -13 7 -23z m-17 -65 c-7 -21 -13 -19 -13 6 0 11 4 18 10 14 5 -3
7 -12 3 -20z m-20 -65 c-3 -11 -8 -20 -12 -20 -4 0 -7 9 -7 20 0 11 6 20 12
20 7 0 10 -8 7 -20z"/>
</g>
</svg>
